<?xml version="1.0" encoding="utf-8"?>
<!-- Generator: Adobe Illustrator 26.1.0, SVG Export Plug-In . SVG Version: 6.00 Build 0)  -->
<svg version="1.1" xmlns="http://www.w3.org/2000/svg" xmlns:xlink="http://www.w3.org/1999/xlink" x="0px" y="0px"
	 viewBox="0 0 500 500" style="enable-background:new 0 0 500 500;" xml:space="preserve">
<style type="text/css">
	.st0{fill:#92E3A9;}
	.st1{opacity:0.8;fill:#FFFFFF;}
	.st2{fill:none;stroke:#B2B2B2;stroke-miterlimit:10;}
	.st3{opacity:0.57;fill:#FFFFFF;}
	.st4{fill:#9C9C9C;}
	.st5{fill:#FFFFFF;}
	.st6{fill:#92E3A9;stroke:#263238;stroke-miterlimit:10;}
	.st7{fill:none;stroke:#263238;stroke-miterlimit:10;}
	.st8{fill:#263238;stroke:#263238;stroke-miterlimit:10;}
	.st9{fill:#C2C2C2;stroke:#263238;stroke-miterlimit:10;}
	.st10{fill:#FFFFFF;stroke:#263238;stroke-miterlimit:10;}
	.st11{fill:none;stroke:#B0B0B0;stroke-miterlimit:10;}
	.st12{fill:#263238;}
</style>
<g id="Background_Simple">
	<g>
		<path class="st0" d="M130.63,467.41c0,0-95.05-72.2-117.47-184.84C-9.26,169.93,82.86,147.22,136.9,109.05
			c54.03-38.17,73.92-81.12,152.21-83.76c78.29-2.64,118.79,26.37,147.06,82.58s43.36,113.93,52.25,170.26
			c8.88,56.33,4.52,101.33-45.74,123.77c-50.26,22.44-73.58,12.6-97.45,38.45C321.36,466.2,212.4,524.71,130.63,467.41z"/>
		<path class="st1" d="M130.63,467.41c0,0-95.05-72.2-117.47-184.84C-9.26,169.93,82.86,147.22,136.9,109.05
			c54.03-38.17,73.92-81.12,152.21-83.76c78.29-2.64,118.79,26.37,147.06,82.58s43.36,113.93,52.25,170.26
			c8.88,56.33,4.52,101.33-45.74,123.77c-50.26,22.44-73.58,12.6-97.45,38.45C321.36,466.2,212.4,524.71,130.63,467.41z"/>
	</g>
</g>
<g id="Clouds">
	<path class="st2" d="M448.01,45.02c0,0-3.38-16.91-19.37-17.52c-18.01-0.69-20.84,10.75-26.4,14.46
		c-5.56,3.71-14.83-4.94-22.87-3.71c-8.03,1.24-8.03,10.51-12.36,12.98c-4.33,2.47-9.89-3.71-16.69-1.85
		c-6.8,1.85-7.42,4.94-11.74,6.8c-4.33,1.85-11.74-2.47-15.45,0c-3.71,2.47-7.42,5.56-7.42,5.56h173.05c0,0-7.83-11.27-14.22-17.31
		C463.42,33.93,453.57,52.44,448.01,45.02z"/>
	<path class="st2" d="M159.68,74.58c0,0-2.37-11.83-13.55-12.26c-12.6-0.48-14.58,7.52-18.47,10.12c-3.89,2.59-10.38-3.46-16-2.59
		c-5.62,0.86-5.62,7.35-8.65,9.08c-3.03,1.73-6.92-2.59-11.67-1.3c-4.76,1.3-5.19,3.46-8.22,4.76c-3.03,1.3-8.22-1.73-10.81,0
		c-2.59,1.73-5.19,3.89-5.19,3.89h121.07c0,0-5.48-7.89-9.95-12.11C170.46,66.81,163.57,79.76,159.68,74.58z"/>
</g>
<g id="Trees">
	<g>
		<path class="st0" d="M144.22,250.38c0,50.49-29.87,91.42-66.71,91.42c-36.84,0-66.71-40.93-66.71-91.42
			c0-50.49,29.87-224.02,66.71-224.02C114.35,26.37,144.22,199.89,144.22,250.38z"/>
		<path class="st3" d="M144.22,250.38c0,50.49-29.87,91.42-66.71,91.42c-36.84,0-66.71-40.93-66.71-91.42
			c0-50.49,29.87-224.02,66.71-224.02C114.35,26.37,144.22,199.89,144.22,250.38z"/>
		<polygon class="st4" points="114.91,276.8 94.71,284.27 98.76,272.11 89.11,286.34 79.47,289.91 78.78,249.98 113.87,203.35 
			95.06,222.16 98.24,209.08 89.25,227.98 78.58,238.64 77.51,176.26 73.68,267.24 40.43,232 58.69,256.83 41.47,254.92 
			62.75,262.34 73.29,276.67 71.44,320.54 59.18,312.22 71.06,329.62 65.43,458.85 82.46,458.85 79.58,296.28 		"/>
		<g>
			<path class="st5" d="M114.21,176.46c0,0,0.62,6.13-2.73,10.63c-3.35,4.5-9.4,5.67-9.4,5.67s-0.62-6.13,2.73-10.63
				C108.16,177.62,114.21,176.46,114.21,176.46z"/>
			<path class="st5" d="M134.31,204.71c0,0,0.62,6.13-2.73,10.63c-3.35,4.5-9.4,5.67-9.4,5.67s-0.62-6.13,2.73-10.63
				C128.26,205.87,134.31,204.71,134.31,204.71z"/>
			<path class="st5" d="M134.3,259.71c0,0-1.48,5.98-6.15,9.09c-4.67,3.11-10.76,2.17-10.76,2.17s1.48-5.98,6.15-9.09
				C128.22,258.77,134.3,259.71,134.3,259.71z"/>
			<path class="st5" d="M23.88,259.71c0,0,1.48,5.98,6.15,9.09c4.67,3.11,10.76,2.17,10.76,2.17s-1.48-5.98-6.15-9.09
				C29.97,258.77,23.88,259.71,23.88,259.71z"/>
			<path class="st5" d="M111.08,236.88c0,0,0.62,6.13-2.73,10.63c-3.35,4.5-9.4,5.67-9.4,5.67s-0.62-6.13,2.73-10.63
				C105.03,238.04,111.08,236.88,111.08,236.88z"/>
			<path class="st5" d="M105.87,145.73c0,0,0.62,6.13-2.73,10.63c-3.35,4.5-9.4,5.66-9.4,5.66s-0.62-6.13,2.73-10.63
				C99.82,146.89,105.87,145.73,105.87,145.73z"/>
			<path class="st5" d="M93.89,169.16c0,0,0.62,6.13-2.73,10.63c-3.35,4.5-9.4,5.67-9.4,5.67s-0.62-6.13,2.73-10.63
				C87.84,170.33,93.89,169.16,93.89,169.16z"/>
			<path class="st5" d="M122.33,152.1c0,0,0.62,6.13-2.73,10.63c-3.35,4.5-9.4,5.67-9.4,5.67s-0.62-6.13,2.73-10.63
				C116.28,153.26,122.33,152.1,122.33,152.1z"/>
			<path class="st5" d="M29.91,152.1c0,0-0.62,6.13,2.73,10.63c3.35,4.5,9.4,5.67,9.4,5.67s0.62-6.13-2.73-10.63
				C35.96,153.26,29.91,152.1,29.91,152.1z"/>
			<path class="st5" d="M108.48,117.08c0,0,0.62,6.13-2.73,10.63c-3.35,4.5-9.4,5.67-9.4,5.67s-0.62-6.13,2.73-10.63
				C102.43,118.24,108.48,117.08,108.48,117.08z"/>
			<path class="st5" d="M102.59,86.65c0,0,2.14,5.78,0.02,10.97c-2.11,5.2-7.67,7.84-7.67,7.84s-2.14-5.78-0.02-10.97
				C97.03,89.29,102.59,86.65,102.59,86.65z"/>
			<path class="st5" d="M60.4,78.7c0,0,5.46,2.86,7.37,8.13c1.91,5.27-0.44,10.97-0.44,10.97s-5.46-2.86-7.37-8.13
				C58.05,84.39,60.4,78.7,60.4,78.7z"/>
			<path class="st5" d="M80.08,115.08c0,0,3.89,4.78,3.57,10.38c-0.32,5.6-4.73,9.9-4.73,9.9s-3.89-4.78-3.56-10.38
				C75.67,119.39,80.08,115.08,80.08,115.08z"/>
			<path class="st5" d="M79.03,60.91c0,0,3.89,4.78,3.56,10.38c-0.32,5.6-4.73,9.9-4.73,9.9s-3.89-4.78-3.57-10.38
				C74.62,65.22,79.03,60.91,79.03,60.91z"/>
			<path class="st5" d="M34.88,176.46c0,0-0.62,6.13,2.73,10.63c3.35,4.5,9.4,5.67,9.4,5.67s0.62-6.13-2.73-10.63
				C40.93,177.62,34.88,176.46,34.88,176.46z"/>
			<path class="st5" d="M23.42,209.79c0,0-0.62,6.13,2.73,10.63c3.35,4.5,9.4,5.67,9.4,5.67s0.62-6.13-2.73-10.63
				C29.47,210.96,23.42,209.79,23.42,209.79z"/>
			<path class="st5" d="M53.84,221.9c0,0-0.62,6.13,2.73,10.63c3.35,4.5,9.4,5.67,9.4,5.67s0.62-6.13-2.73-10.63
				C59.89,223.06,53.84,221.9,53.84,221.9z"/>
			<path class="st5" d="M62.16,175.71c0,0-2.35,5.7-0.42,10.97c1.92,5.27,7.38,8.12,7.38,8.12s2.35-5.7,0.42-10.97
				C67.62,178.55,62.16,175.71,62.16,175.71z"/>
			<path class="st5" d="M40.62,298.62c0,0,6.16,0.11,10.37-3.6c4.21-3.71,4.88-9.83,4.88-9.83s-6.16-0.11-10.37,3.6
				C41.28,292.49,40.62,298.62,40.62,298.62z"/>
			<path class="st5" d="M99.72,291.88c0,0,1.67,5.93,6.44,8.89c4.77,2.96,10.82,1.82,10.82,1.82s-1.67-5.93-6.44-8.89
				C105.77,290.75,99.72,291.88,99.72,291.88z"/>
			<path class="st5" d="M47.49,145.73c0,0-0.62,6.13,2.73,10.63c3.35,4.5,9.4,5.66,9.4,5.66s0.62-6.13-2.73-10.63
				C53.54,146.89,47.49,145.73,47.49,145.73z"/>
			<path class="st5" d="M47.38,118.64c0,0-0.62,6.13,2.73,10.63c3.35,4.5,9.4,5.67,9.4,5.67s0.62-6.13-2.73-10.63
				C53.43,119.81,47.38,118.64,47.38,118.64z"/>
		</g>
	</g>
	<g>
		<path class="st0" d="M488.47,250.38c0,50.49-29.87,91.42-66.71,91.42c-36.84,0-66.71-40.93-66.71-91.42
			c0-50.49,29.87-224.02,66.71-224.02C458.6,26.37,488.47,199.89,488.47,250.38z"/>
		<path class="st3" d="M488.47,250.38c0,50.49-29.87,91.42-66.71,91.42c-36.84,0-66.71-40.93-66.71-91.42
			c0-50.49,29.87-224.02,66.71-224.02C458.6,26.37,488.47,199.89,488.47,250.38z"/>
		<polygon class="st4" points="459.17,276.8 438.97,284.27 443.02,272.11 433.36,286.34 423.72,289.91 423.03,249.98 458.12,203.35 
			439.32,222.16 442.5,209.08 433.5,227.98 422.84,238.64 421.76,176.26 417.94,267.24 384.68,232 402.95,256.83 385.72,254.92 
			407,262.34 417.54,276.67 415.7,320.54 403.43,312.22 415.32,329.62 409.68,458.85 426.72,458.85 423.83,296.28 		"/>
		<g>
			<path class="st5" d="M458.46,176.46c0,0,0.62,6.13-2.73,10.63c-3.35,4.5-9.4,5.67-9.4,5.67s-0.62-6.13,2.73-10.63
				C452.41,177.62,458.46,176.46,458.46,176.46z"/>
			<path class="st5" d="M478.57,204.71c0,0,0.62,6.13-2.73,10.63c-3.35,4.5-9.4,5.67-9.4,5.67s-0.62-6.13,2.73-10.63
				C472.52,205.87,478.57,204.71,478.57,204.71z"/>
			<path class="st5" d="M478.56,259.71c0,0-1.48,5.98-6.15,9.09c-4.67,3.11-10.76,2.17-10.76,2.17s1.48-5.98,6.15-9.09
				C472.47,258.77,478.56,259.71,478.56,259.71z"/>
			<path class="st5" d="M368.13,259.71c0,0,1.48,5.98,6.15,9.09c4.67,3.11,10.76,2.17,10.76,2.17s-1.48-5.98-6.15-9.09
				C374.22,258.77,368.13,259.71,368.13,259.71z"/>
			<path class="st5" d="M455.33,236.88c0,0,0.62,6.13-2.73,10.63c-3.35,4.5-9.4,5.67-9.4,5.67s-0.62-6.13,2.73-10.63
				C449.29,238.04,455.33,236.88,455.33,236.88z"/>
			<path class="st5" d="M450.13,145.73c0,0,0.62,6.13-2.73,10.63c-3.35,4.5-9.4,5.66-9.4,5.66s-0.62-6.13,2.73-10.63
				C444.08,146.89,450.13,145.73,450.13,145.73z"/>
			<path class="st5" d="M438.15,169.16c0,0,0.62,6.13-2.73,10.63c-3.35,4.5-9.4,5.67-9.4,5.67s-0.62-6.13,2.73-10.63
				C432.1,170.33,438.15,169.16,438.15,169.16z"/>
			<path class="st5" d="M466.59,152.1c0,0,0.62,6.13-2.73,10.63c-3.35,4.5-9.4,5.67-9.4,5.67s-0.62-6.13,2.73-10.63
				C460.54,153.26,466.59,152.1,466.59,152.1z"/>
			<path class="st5" d="M374.17,152.1c0,0-0.62,6.13,2.73,10.63c3.35,4.5,9.4,5.67,9.4,5.67s0.62-6.13-2.73-10.63
				C380.22,153.26,374.17,152.1,374.17,152.1z"/>
			<path class="st5" d="M452.73,117.08c0,0,0.62,6.13-2.73,10.63c-3.35,4.5-9.4,5.67-9.4,5.67s-0.62-6.13,2.73-10.63
				C446.68,118.24,452.73,117.08,452.73,117.08z"/>
			<path class="st5" d="M446.84,86.65c0,0,2.14,5.78,0.02,10.97c-2.11,5.2-7.67,7.84-7.67,7.84s-2.14-5.78-0.02-10.97
				C441.28,89.29,446.84,86.65,446.84,86.65z"/>
			<path class="st5" d="M404.66,78.7c0,0,5.46,2.86,7.37,8.13c1.91,5.27-0.44,10.97-0.44,10.97s-5.46-2.86-7.37-8.13
				C402.3,84.39,404.66,78.7,404.66,78.7z"/>
			<path class="st5" d="M424.33,115.08c0,0,3.89,4.78,3.57,10.38c-0.32,5.6-4.73,9.9-4.73,9.9s-3.89-4.78-3.57-10.38
				C419.92,119.39,424.33,115.08,424.33,115.08z"/>
			<path class="st5" d="M423.29,60.91c0,0,3.89,4.78,3.56,10.38c-0.32,5.6-4.73,9.9-4.73,9.9s-3.89-4.78-3.57-10.38
				C418.88,65.22,423.29,60.91,423.29,60.91z"/>
			<path class="st5" d="M379.14,176.46c0,0-0.62,6.13,2.73,10.63c3.35,4.5,9.4,5.67,9.4,5.67s0.62-6.13-2.73-10.63
				C385.18,177.62,379.14,176.46,379.14,176.46z"/>
			<path class="st5" d="M367.68,209.79c0,0-0.62,6.13,2.73,10.63c3.35,4.5,9.4,5.67,9.4,5.67s0.62-6.13-2.73-10.63
				C373.73,210.96,367.68,209.79,367.68,209.79z"/>
			<path class="st5" d="M398.1,221.9c0,0-0.62,6.13,2.73,10.63c3.35,4.5,9.4,5.67,9.4,5.67s0.62-6.13-2.73-10.63
				C404.14,223.06,398.1,221.9,398.1,221.9z"/>
			<path class="st5" d="M406.41,175.71c0,0-2.35,5.7-0.42,10.97c1.92,5.27,7.38,8.12,7.38,8.12s2.35-5.7,0.42-10.97
				C411.87,178.55,406.41,175.71,406.41,175.71z"/>
			<path class="st5" d="M384.87,298.62c0,0,6.16,0.11,10.37-3.6c4.21-3.71,4.88-9.83,4.88-9.83s-6.16-0.11-10.37,3.6
				C385.54,292.49,384.87,298.62,384.87,298.62z"/>
			<path class="st5" d="M443.97,291.88c0,0,1.67,5.93,6.44,8.89c4.77,2.96,10.82,1.82,10.82,1.82s-1.67-5.93-6.44-8.89
				C450.03,290.75,443.97,291.88,443.97,291.88z"/>
			<path class="st5" d="M391.74,145.73c0,0-0.62,6.13,2.73,10.63c3.35,4.5,9.4,5.66,9.4,5.66s0.62-6.13-2.73-10.63
				C397.79,146.89,391.74,145.73,391.74,145.73z"/>
			<path class="st5" d="M391.64,118.64c0,0-0.62,6.13,2.73,10.63c3.35,4.5,9.4,5.67,9.4,5.67s0.62-6.13-2.73-10.63
				C397.69,119.81,391.64,118.64,391.64,118.64z"/>
		</g>
	</g>
	<g>
		<path class="st0" d="M327.77,314.72c0,34.91-20.65,63.2-46.12,63.2c-25.47,0-46.12-28.3-46.12-63.2
			c0-34.91,20.65-154.88,46.12-154.88C307.12,159.84,327.77,279.81,327.77,314.72z"/>
		<path class="st3" d="M327.77,314.72c0,34.91-20.65,63.2-46.12,63.2c-25.47,0-46.12-28.3-46.12-63.2
			c0-34.91,20.65-154.88,46.12-154.88C307.12,159.84,327.77,279.81,327.77,314.72z"/>
		<polygon class="st4" points="307.51,332.98 293.55,338.15 296.35,329.74 289.67,339.58 283.01,342.05 282.53,314.44 
			306.79,282.21 293.79,295.21 295.99,286.17 289.77,299.23 282.4,306.6 281.65,263.47 279.01,326.38 256.02,302.01 268.65,319.18 
			256.74,317.86 271.45,322.99 278.73,332.9 277.46,363.22 268.98,357.47 277.2,369.5 273.3,458.85 285.08,458.85 283.08,346.45 		
			"/>
		<g>
			<path class="st5" d="M307.03,263.61c0,0,0.43,4.24-1.89,7.35c-2.32,3.11-6.5,3.92-6.5,3.92s-0.43-4.24,1.89-7.35
				C302.84,264.42,307.03,263.61,307.03,263.61z"/>
			<path class="st5" d="M320.93,283.14c0,0,0.43,4.24-1.89,7.35c-2.32,3.11-6.5,3.92-6.5,3.92s-0.43-4.24,1.89-7.35
				C316.74,283.95,320.93,283.14,320.93,283.14z"/>
			<path class="st5" d="M320.92,321.17c0,0-1.02,4.13-4.25,6.28c-3.23,2.15-7.44,1.5-7.44,1.5s1.02-4.13,4.25-6.28
				C316.71,320.52,320.92,321.17,320.92,321.17z"/>
			<path class="st5" d="M244.58,321.17c0,0,1.02,4.13,4.25,6.28c3.23,2.15,7.44,1.5,7.44,1.5s-1.02-4.13-4.25-6.28
				C248.79,320.52,244.58,321.17,244.58,321.17z"/>
			<path class="st5" d="M304.86,305.38c0,0,0.43,4.24-1.89,7.35c-2.32,3.11-6.5,3.92-6.5,3.92s-0.43-4.24,1.89-7.35
				C300.68,306.19,304.86,305.38,304.86,305.38z"/>
			<path class="st5" d="M301.26,242.36c0,0,0.43,4.24-1.89,7.35c-2.32,3.11-6.5,3.92-6.5,3.92s-0.43-4.24,1.89-7.35
				C297.08,243.17,301.26,242.36,301.26,242.36z"/>
			<path class="st5" d="M292.98,258.57c0,0,0.43,4.24-1.89,7.35c-2.32,3.11-6.5,3.92-6.5,3.92s-0.43-4.24,1.89-7.35
				C288.8,259.37,292.98,258.57,292.98,258.57z"/>
			<path class="st5" d="M312.64,246.77c0,0,0.43,4.24-1.89,7.35c-2.32,3.11-6.5,3.92-6.5,3.92s-0.43-4.24,1.89-7.35
				C308.46,247.58,312.64,246.77,312.64,246.77z"/>
			<path class="st5" d="M248.75,246.77c0,0-0.43,4.24,1.89,7.35c2.32,3.11,6.5,3.92,6.5,3.92s0.43-4.24-1.89-7.35
				C252.93,247.58,248.75,246.77,248.75,246.77z"/>
			<path class="st5" d="M303.06,222.56c0,0,0.43,4.24-1.89,7.35c-2.32,3.11-6.5,3.92-6.5,3.92s-0.43-4.24,1.89-7.35
				C298.88,223.36,303.06,222.56,303.06,222.56z"/>
			<path class="st5" d="M298.99,201.52c0,0,1.48,3.99,0.02,7.59c-1.46,3.59-5.31,5.42-5.31,5.42s-1.48-3.99-0.02-7.59
				C295.15,203.35,298.99,201.52,298.99,201.52z"/>
			<path class="st5" d="M269.83,196.02c0,0,3.77,1.98,5.09,5.62c1.32,3.65-0.31,7.58-0.31,7.58s-3.77-1.98-5.1-5.62
				C268.2,199.95,269.83,196.02,269.83,196.02z"/>
			<path class="st5" d="M283.43,221.18c0,0,2.69,3.3,2.46,7.18c-0.22,3.87-3.27,6.85-3.27,6.85s-2.69-3.3-2.46-7.18
				C280.38,224.15,283.43,221.18,283.43,221.18z"/>
			<path class="st5" d="M282.71,183.73c0,0,2.69,3.3,2.46,7.18c-0.22,3.87-3.27,6.85-3.27,6.85s-2.69-3.3-2.47-7.18
				C279.66,186.7,282.71,183.73,282.71,183.73z"/>
			<path class="st5" d="M252.18,263.61c0,0-0.43,4.24,1.89,7.35c2.32,3.11,6.5,3.92,6.5,3.92s0.43-4.24-1.89-7.35
				C256.36,264.42,252.18,263.61,252.18,263.61z"/>
			<path class="st5" d="M244.26,286.66c0,0-0.43,4.24,1.89,7.35c2.32,3.11,6.5,3.92,6.5,3.92s0.43-4.24-1.89-7.35
				C248.44,287.46,244.26,286.66,244.26,286.66z"/>
			<path class="st5" d="M265.29,295.02c0,0-0.43,4.24,1.89,7.35c2.32,3.11,6.5,3.92,6.5,3.92s0.43-4.24-1.89-7.35
				C269.47,295.83,265.29,295.02,265.29,295.02z"/>
			<path class="st5" d="M271.04,263.09c0,0-1.62,3.94-0.29,7.58c1.33,3.64,5.1,5.61,5.1,5.61s1.62-3.94,0.29-7.58
				C274.82,265.06,271.04,263.09,271.04,263.09z"/>
			<path class="st5" d="M256.15,348.07c0,0,4.26,0.08,7.17-2.49c2.91-2.56,3.37-6.8,3.37-6.8s-4.26-0.08-7.17,2.49
				C256.61,343.83,256.15,348.07,256.15,348.07z"/>
			<path class="st5" d="M297.01,343.41c0,0,1.16,4.1,4.45,6.14c3.29,2.04,7.48,1.26,7.48,1.26s-1.16-4.1-4.45-6.14
				C301.19,342.63,297.01,343.41,297.01,343.41z"/>
			<path class="st5" d="M260.9,242.36c0,0-0.43,4.24,1.89,7.35c2.32,3.11,6.5,3.92,6.5,3.92s0.43-4.24-1.89-7.35
				C265.08,243.17,260.9,242.36,260.9,242.36z"/>
			<path class="st5" d="M260.83,223.64c0,0-0.43,4.24,1.89,7.35c2.32,3.11,6.5,3.92,6.5,3.92s0.43-4.24-1.89-7.35
				C265.01,224.44,260.83,223.64,260.83,223.64z"/>
		</g>
	</g>
</g>
<g id="Character_2">
	<g>
		<g>
			<path class="st6" d="M320.88,241.22c0,0-4.71-0.04-5.62,5.2c-0.91,5.24-2.28,11.38-2.28,11.38l-34.38,29.37
				c0,0-10.02,0.23-11.61,3.87c-1.59,3.64-1.82,5.46-1.82,5.46s-1.37-0.23-2.96,4.1c-1.59,4.33-1.82,6.6-1.82,6.6
				s47.13,6.38,48.72,7.06c1.59,0.68,4.33,0.68,5.46-1.37s4.33-28,6.83-36.88c2.5-8.88,5.69-17.99,4.1-23.68
				C323.91,246.64,320.88,241.22,320.88,241.22z"/>
			<g>
				<path class="st7" d="M297.56,296.07c1.17,1.07,2.31,2.27,3.36,3.63"/>
				<path class="st7" d="M282.93,288.31c0,0,5.8,1.21,11.67,5.38"/>
				<path class="st7" d="M269.95,293.09c0,0,11.16-2.05,19.58,1.82"/>
			</g>
		</g>
		<path class="st8" d="M435.97,458.85l-4.37-61.99c0,0-53.72,4.66-75.1,2.74c-21.38-1.92-36.73-9.87-36.73-9.87
			s-1.1,8.22-2.47,18.91c-1.2,9.33-1.56,42.02-1.63,50.21H435.97z"/>
		<path class="st9" d="M333.48,398.23c0,0,9.3,9.53,33.54,9.53c17.82,0,24.84-2.13,24.84-2.13l0.6-8.05c0,0-28.01,0.65-41.44-3.74
			c-13.43-4.39-17.27-4.66-17.27-4.66L333.48,398.23z"/>
		<path class="st9" d="M365.5,228.76l-7.44,5.76c0,0-9.3,38.11-11.53,51.87c-2.23,13.76-9.11,41.65-9.11,63.96
			c0,22.31-1.86,42.39-1.86,42.39s18.41,6.69,36.25,6.51c17.85-0.19,20.64-1.67,20.64-1.67s2.97-66,6.14-81.99
			s7.81-67.68,9.67-77.71s-0.93-9.85-0.93-9.85l-6.14-2.97L365.5,228.76z"/>
		<path class="st10" d="M364.2,222.97c0,0,0.51,6.43,0.51,9.51c0,3.09,1.54,13.88,3.6,20.57c2.06,6.69,5.66,9.26,7.97,7.97
			c2.31-1.29,13.12-7.73,26.74-33.68c3.33-6.34,1.54-32.91,1.54-32.91s-4.63,9.51-8.23,13.37s-31.88,8.23-31.88,8.23L364.2,222.97z"
			/>
		<g>
			<path class="st10" d="M353.82,150.35c0,0-0.08,0.43-0.22,1.15c-0.63,3.37-2.43,13.13-2.43,15.59c0,2.98,0.66,3.48,0.5,8.12
				c-0.17,4.64-1.49,8.62-0.83,11.93c0.66,3.31,1.33,6.79,1.66,10.44c0.33,3.65,0.33,5.97,0.33,5.97s1.82,0.5,1.82,4.97
				c0,4.47-0.66,9.78,3.31,11.93c3.98,2.15,22.04,2.98,32.64-1.66c10.61-4.64,10.77-9.11,11.43-12.43c0.66-3.31,1.16-8.12,1.16-8.12
				s8.62-2.98,10.27-4.97s6.46-8.62,3.81-13.09c-2.65-4.47-5.3-2.98-5.3-2.98l-4.81-1.99l3.65-14.25c0,0-20.38-1.49-25.68-5.97
				c-5.3-4.47-6.46-11.27-16.57-11.43C358.46,143.39,353.82,150.35,353.82,150.35z"/>
			<path class="st8" d="M364.75,152.18c0,0-2.15-3.81-4.97-3.81c-2.82,0-7.13,5.47-8.29,6.46c-1.16,0.99-3.81-0.99-2.82-5.63
				c0.99-4.64,1.66-5.47,1.66-5.47s-5.63,2.82-6.3,1.33c-0.66-1.49,4.81-10.44,12.43-14.91c7.62-4.47,18.56-1.99,18.56-1.99
				s14.09-4.81,24.69,1.82c10.61,6.63,20.22,26.02,18.56,31.82c-1.66,5.8-4.81,11.77-5.3,12.59c-0.5,0.83-0.99,2.82-0.99,2.82
				s-6.63,3.31-6.96,4.97c-0.33,1.66,0,24.36-0.5,28.34c-0.5,3.98-3.15,7.29-7.29,8.95c-4.14,1.66-22.54,7.46-30.99,6.63
				c-8.45-0.83-13.26-6.3-13.42-10.61c-0.17-4.31,0.33-4.97,0.33-7.62c0-2.65-1.99-3.81,0.17-5.97c2.15-2.15,13.42-6.13,22.7-3.81
				s18.39,6.3,19.39,5.8c0.99-0.5,4.81-5.97,5.63-12.43c0.83-6.46,0.33-10.61,0.33-11.27c0-0.66-2.32-4.81-4.31-8.29
				c-1.99-3.48-1.16-7.79-1.16-7.79s-9.94-2.15-14.09-6.46c-4.14-4.31-5.3-8.45-9.28-8.78
				C368.56,148.53,364.75,152.18,364.75,152.18z"/>
			<path class="st10" d="M364.09,178.86c0,0-3.81,16.74-2.82,18.56c0.99,1.82,8.29,2.82,9.78,2.32c1.49-0.5,3.65-3.98,3.65-3.98"/>
			<path class="st11" d="M362.6,205.37c-0.62,0.24,4.26,2.06,12.1,0.33c5.4-1.19,6.96-2.49,6.96-2.49"/>
			<path class="st8" d="M388.62,168.09c0,0-5.47-3.48-8.45-4.47c-2.98-0.99-9.45-1.33-9.78,0.17c-0.33,1.49,0.33,2.65,2.82,2.65
				c2.49,0,10.44,1.66,12.1,1.99C386.96,168.75,389.77,170.9,388.62,168.09z"/>
			<path class="st8" d="M363.26,169.41c0,0-0.5-2.15-2.15-2.65c-1.66-0.5-8.12,0.66-8.62,1.99c-0.5,1.33,4.97,1.33,7.46,1.33
				C362.43,170.07,363.26,170.57,363.26,169.41z"/>
			<path class="st12" d="M379.5,180.26c0,1.88-0.96,3.4-2.15,3.4c-1.19,0-2.15-1.52-2.15-3.4c0-1.88,0.96-3.4,2.15-3.4
				C378.54,176.87,379.5,178.39,379.5,180.26z"/>
			<ellipse class="st12" cx="356.08" cy="179.77" rx="2.05" ry="3.23"/>
			<path class="st7" d="M364.92,173.88c0,0-1.33-1.33-3.98-1.82c-2.65-0.5-11.93-0.83-13.26,0.5c-1.33,1.33-0.33,7.29,0.99,9.78
				c1.33,2.49,5.47,3.31,8.78,2.82c3.31-0.5,4.31-1.49,5.14-2.65C363.43,181.34,364.92,175.87,364.92,173.88z"/>
			<path class="st7" d="M369.78,173.63c0,0,1.65-1.25,4.8-1.54c3.15-0.3,14.08,0.09,15.55,1.54c1.47,1.45-0.1,7.44-1.83,9.87
				c-1.73,2.42-6.65,2.95-10.52,2.18c-3.86-0.76-4.97-1.85-5.86-3.1C371.04,181.33,369.65,175.66,369.78,173.63z"/>
			<path class="st7" d="M364.92,173.88c0,0,2.44-2.49,4.86-0.25"/>
			<line class="st7" x1="390.93" y1="174.88" x2="411.98" y2="177.2"/>
		</g>
		<path class="st6" d="M335.19,428.81c0,0,0.37,7.44-1.12,7.99c-1.49,0.56-14.32-3.35-21.2-6.69c-6.88-3.35-9.3-3.53-8.92-5.76
			c0.37-2.23,1.67-6.88,1.67-6.88L335.19,428.81z"/>
		<g>
			<path class="st6" d="M364.75,230.07c0,0-7.62,37.74-10.23,49.08c-2.6,11.34-12.83,55.59-13.39,72.32
				c-0.56,16.73-2.42,68.05-2.97,74.55c-0.56,6.51-2.79,4.83-3.72,4.46c-0.93-0.37-28.63-9.48-29.75-10.78
				c-1.12-1.3,0.19-13.01,0.19-13.01l7.81-52.99l0.74-25.1c0,0,0.19-29.93,3.72-46.85c3.53-16.92,2.58-14.65,3.13-22.42
				c0.69-9.7-2.02-17,0.58-18.11c2.6-1.12,30.86-6.14,33.47-7.07C356.95,233.23,363.08,226.72,364.75,230.07z"/>
			<path class="st7" d="M340.25,290.22c-7.58,1.9-17.69-0.63-17.69-0.63s-2.84,1.26-2.84,2.21c0,0.95,0,5.69,0,7.26
				c0,1.58,1.26,0.63,4.11,2.84"/>
		</g>
		<path class="st6" d="M386.57,431.96c0,0-2.31,9.07-0.53,10.14c1.78,1.07,21.17,2.67,33.98,1.25c12.81-1.42,26.33-7.47,27.22-9.25
			c0.89-1.78-0.53-8.54-0.53-8.54s-13.52,4.8-28.28,6.94C403.65,434.63,386.57,431.96,386.57,431.96z"/>
		<g>
			<path class="st6" d="M403.85,225.47c0,0-5.55,32.49-9.72,63.32s-8.05,96.64-8.05,96.64s-1.94,47.21-1.39,48.04
				c0.56,0.83,23.61,4.72,38.88,1.94c15.27-2.78,23.33-6.67,24.72-10c1.39-3.33-4.17-76.09-4.17-76.09s10-99.42,8.33-101.92
				c-1.67-2.5-7.78-3.89-20-8.61C420.24,234.08,404.68,223.6,403.85,225.47z"/>
			<path class="st7" d="M418.66,295.75c-4.97,0.24-10.82,0.47-14.29,0.47c-6.95,0-6,0-6,2.21s-0.95,9.79,0.63,10.11
				c1.58,0.32,12.32,3.79,14.85,5.05c2.53,1.26,6.95,0,8.21-0.63c1.26-0.63,8.21-4.42,8.21-4.42"/>
			<path class="st7" d="M427.74,295.27c0,0-1.29,0.07-3.29,0.18"/>
			<circle class="st7" cx="417" cy="310.12" r="1.58"/>
		</g>
		<path class="st6" d="M355.73,233.63c0,0-1.33,6.45-2.85,9.68s-8.92,10.25-11.2,15c-2.28,4.75-0.19,4.94,2.28,4.56
			c2.47-0.38,9.3-6.45,11.01-6.45c1.71,0,4.18,0.57,4.18,0.57l5.57-24.49c0,0,1-4.31-2.61-3.26
			C360.09,229.81,356.67,232.39,355.73,233.63z"/>
		<path class="st6" d="M403.85,225.47c0,0-6.16,37.41-5.59,37.64c0.57,0.23,6.37-2.5,7.16-2.5s11.94,6.37,13.08,6.37
			s2.16-0.34,1.48-2.62c-0.68-2.27-6.37-19.22-6.37-19.22s-0.85-16.35-2.44-18.28C409.58,224.93,405.01,224.22,403.85,225.47z"/>
		<path class="st6" d="M434.25,260.03c0,0-8.06,13.97-7.26,17.74c0.81,3.76,7.65,37.52,7.65,37.52s-3.49-0.54-3.49,1.61
			s-1.53,7.17-1.53,7.17s13.35,19.16,15.5,22.93c2.15,3.76,2.15,3.76,2.15,3.76s4.3,4.3,10.21,4.84c5.91,0.54,14.24-2.15,15.85-6.18
			c1.61-4.03,1.61-13.17,1.61-13.17s-5.91-58.85-9.14-69.33c-3.22-10.48-4.03-16.12-7.26-19.08c-3.22-2.96-16.93-2.15-16.93-2.15"/>
		<path class="st7" d="M459.92,338.42c0.98,1.42,1.88,2.93,2.68,4.55"/>
		<path class="st7" d="M435.45,320.66c0,0,13.2,4.09,22.28,14.9"/>
		<path class="st7" d="M452.86,319.01c-3.43-1.08-6.95-1.73-9.88-1.3"/>
		<path class="st7" d="M466.89,325.5c0,0-4.86-3.01-10.73-5.32"/>
		<g>
			<path class="st10" d="M324.37,305.61c0,0-14.12-0.23-23.68-3.87c-9.56-3.64-21.4-7.06-28.23-5.92
				c-6.83,1.14-10.7,4.78-13.66,10.47c-2.96,5.69,1.37,18.9,6.15,21.63c4.78,2.73,16.39,4.33,25.27,2.96
				c8.88-1.37,26.41-2.05,32.1-1.59c5.69,0.46,34.15,2.28,36.66,2.05c2.5-0.23,3.19-2.96,3.42-4.55c0.23-1.59,1.05-14.45,1.05-14.45
				s4.26-1.31,4.19-5.13c-0.06-3.14-3.19-4.33-5.24-4.78c-2.05-0.46-12.52-3.19-14.34-3.87c-1.82-0.68-1.82-0.68-1.82-0.68
				s7.74-6.6,9.11-8.65c1.37-2.05,3.08-6.78,1.14-8.42c-1.94-1.65-4.33,1.14-5.46,2.96c-1.14,1.82-4.55,3.42-6.6,4.78
				c-2.05,1.37-8.2,3.42-10.25,6.6C332.11,298.33,324.37,305.61,324.37,305.61z"/>
			<path class="st7" d="M346.23,297.87c0,0-3.3-1.3-4.52-0.99"/>
		</g>
		<g>
			<path class="st10" d="M454.41,354.62c0,0,3.33-1.11,0.74-9.24c-2.59-8.13-12.2-17.93-18.49-20.33c-6.29-2.4-9.06-1.29-19.04,1.29
				c-9.98,2.59-25.14,4.07-33.46,4.07s-7.76,0.92-7.76,0.92s-5.18-6.47-8.13-6.47c-2.96,0-14.05,2.96-15.16,3.33
				c0,0-5.73-0.55-9.98,0.55c-4.25,1.11-6.84,4.07-6.84,4.07s-12.39-6.65-16.45-7.21c-4.07-0.55-4.44,1.48-4.44,1.48
				s-8.5-2.03-7.76-0.18c0.74,1.85,0.74,1.85,0.74,1.85s-4.81-1.29-4.99-0.18c-0.18,1.11,5.73,4.07,12.76,7.02
				c7.02,2.96,14.97,3.14,23.66,6.1c8.69,2.96,34.2,5.36,34.2,5.36s46.21,9.8,61.37,9.8C450.53,356.84,454.41,354.62,454.41,354.62z
				"/>
			<path class="st7" d="M336.28,332.81c0,0-2.96,7.95,1.29,7.58c4.25-0.37,10.72-4.99,13.86-5.18c3.14-0.18,9.43,2.03,9.43,2.03"/>
			<path class="st7" d="M315.39,327.08c0,0,6.29,5.92,13.31,9.43c7.02,3.51,11.83,4.99,14.97,4.99c3.14,0,6.84-0.37,6.84-0.37"/>
			<path class="st7" d="M308.37,328.74c0,0,6.84,6.29,13.31,8.13"/>
		</g>
	</g>
</g>
<g id="Character_1">
	<g>
		<path class="st8" d="M156.29,132.33c0,0-0.71-0.18-1.9-0.41c-3.79-0.75-12.46-2.09-18.8-0.21c-8.34,2.47-27.5,24.72-29.04,36.15
			c-1.54,11.43-6.18,66.11-6.18,66.11s44.18,13.9,59.01,13.28c14.83-0.62,22.55-5.56,22.55-5.56s-3.4-20.08-2.47-29.35
			c0.93-9.27,2.47-41.09,2.47-41.09s8.03-9.27,8.96-16.07c0.93-6.8-16.7-21.87-24.43-23.11
			C158.74,130.84,156.29,132.33,156.29,132.33z"/>
		<path class="st8" d="M216.12,458.85c-1.6-23.23-6.49-58.99-6.49-58.99s-20.78,6.63-56.42,8.06
			c-35.65,1.43-59.11-10.75-59.11-10.75s-3.76,12-6.63,24.9c-2.19,9.88-2.71,28.56-2.83,36.78H216.12z"/>
		<path class="st6" d="M92.84,387.86c0,0-3.76,12.54-2.15,14.69c1.61,2.15,32.42,13.26,63.59,12.18
			c31.17-1.07,54.27-6.63,56.96-9.85c2.69-3.22-1.43-14.15-1.43-14.15s-17.38,9.14-49.8,7.88
			C127.59,397.35,93.55,385.71,92.84,387.86z"/>
		<g>
			<path class="st6" d="M128.17,233.21c0,0-23.94-5.11-32.08-4.65c-8.14,0.46-18.13,6.97-20.92,13.02
				c-2.79,6.04-7.9,12.09-7.9,12.09s-39.49,22.27-38.56,27.16c0.93,4.88,22.76,14.68,32.98,13.98c10.23-0.7,28.12-16.27,28.12-16.27
				s19.06,52.53,19.52,59.04c0.46,6.51-19.76,48.11-18.59,52.53c1.16,4.42,20.45,11.39,51.13,13.02c30.68,1.63,44.63-0.7,57.41-4.65
				s12.55-8.83,12.32-12.78c-0.23-3.95-10.46-41.84-10.46-50.9s4.42-22.31,4.42-22.31l11.62,12.78c0,0-2.32,2.56-1.39,3.95
				c0.93,1.39,3.25,3.72,3.25,3.72s14.41-2.56,24.64,0.23c10.23,2.79,6.97-4.88,4.88-8.83c-2.09-3.95-2.56-9.3-5.58-10.46
				c-3.02-1.16-4.88-3.95-4.88-3.95s-18.36-45.09-22.08-51.13c-3.72-6.04-12.78-14.88-19.52-17.9c-6.74-3.02-16.5-2.56-16.5-2.56
				s-9.99,4.65-27.19,0.7C135.61,235.06,128.17,233.21,128.17,233.21z"/>
			<path class="st7" d="M126.45,237.22c0,0-0.38,10.72,10.72,19.91"/>
			<path class="st7" d="M174.09,324.39c-7.31,3.23-16.93,7.25-22.37,8.55"/>
			<path class="st7" d="M183.88,319.92c0,0-2.05,0.97-5.18,2.4"/>
			<path class="st7" d="M171.25,328.34c0,0-14.17,6.51-24.89,9.57"/>
			<path class="st7" d="M199.07,268.26c-1.34-3.23-2.33-5.3-2.33-5.3"/>
			<path class="st7" d="M205.57,312.46c0,0,1.39-6.28,0.7-18.59c-0.36-6.36-2.89-14.4-5.25-20.69"/>
			<path class="st7" d="M237.55,321.06c1.52-0.07,3.08,0.03,4.65,0.35"/>
			<path class="st7" d="M221.01,327.66c0,0,4.93-4.07,11.59-5.83"/>
			<path class="st7" d="M240.86,314.95c0,0-9.37,0.67-14.28,5.13"/>
		</g>
		<path class="st10" d="M137.7,200.2c0,0,1.39,21.38,0,26.26c-1.39,4.88-4.65,6.28-9.53,6.74c0,0,9.3,25.33,26.26,29.98
			c16.97,4.65,25.57-24.87,25.57-24.87s-9.06-1.63-11.16-5.11c-2.09-3.49-2.32-15.57-2.32-15.57L137.7,200.2z"/>
		<polygon class="st8" points="145.22,213.69 165.7,229.05 165.43,217.17 		"/>
		<g>
			<path class="st10" d="M166.62,146.89c0,0-3.84,5.87-13.54,15.79c-9.7,9.93-16.25,12.41-16.25,12.41s-1.35,10.6-4.51,11.96
				c-3.16,1.35-3.38,0.68-5.42-2.03c-2.03-2.71-7.22-2.93-8.57,2.03c-1.35,4.96,4.06,12.64,7.67,15.12c3.61,2.48,8.8-0.23,8.8-0.23
				s3.84,8.35,8.8,11.28c4.96,2.93,26.62,10.15,32.27,7.9c5.64-2.26,11.51-23.24,11.28-30.46c-0.23-7.22-1.81-11.51-2.48-16.02
				c-0.68-4.51,0.9-6.09-1.58-11.73C180.61,157.27,166.62,146.89,166.62,146.89z"/>
			<path class="st7" d="M175.11,171.13c0,0-2.97,5.44-1.81,8.24c1.15,2.8,7.91,8.57,6.59,11.04c-1.32,2.47-6.92,3.79-6.92,3.79"/>
			<path class="st7" d="M158.47,199.3c0,0,5.6,4.78,13.18,3.79"/>
			<path class="st7" d="M164.4,167.01c0,0-4.28-1.48-8.4,0.66c-4.12,2.14-5.44,3.62-5.44,3.62"/>
			<path class="st7" d="M175.77,167.51c0,0,5.11-2.64,7.91,0.33"/>
			<path class="st12" d="M163.42,177.8c0,2.05-0.89,3.71-1.98,3.71s-1.98-1.66-1.98-3.71c0-2.05,0.88-3.71,1.98-3.71
				S163.42,175.75,163.42,177.8z"/>
			<path class="st12" d="M183.02,177.14c0,2.05-0.89,3.71-1.98,3.71c-1.09,0-1.98-1.66-1.98-3.71s0.89-3.71,1.98-3.71
				C182.13,173.44,183.02,175.09,183.02,177.14z"/>
		</g>
		<path class="st6" d="M101.77,265.91c0,0-0.11-0.68-0.42-1.43c-0.4-0.98-1.14-2.09-2.38-1.98c-2.2,0.2-8.42,2.2-9.82,1.8
			c-1.4-0.4-3.21-2.4-6.21-2c-3.01,0.4-22.64,2.6-31.46,5.61c-8.82,3.01-21.82,7.5-25,12.68c-4.1,6.68,2.71,24.79,7.72,27.4
			c5.01,2.6,28.53-3.49,41.72-7.93c6.84-2.3,14.43-7.3,15.43-8.71c1-1.4,1.4-2.2,1.4-2.2s4.01-0.4,6.61-1.2
			c2.6-0.8,4.01-4.21,4.01-4.21S98.37,273.52,101.77,265.91z"/>
		<g>
			<path class="st10" d="M101.77,265.91c0,0,36.67-6.81,39.47-6.01c2.8,0.8,18.43,22.84,20.44,26.85c2,4.01,11.42,22.24,12.82,24.84
				c1.4,2.6,2.8,4.61,1.8,5.61c-1,1-2.8,1-3.81-0.4c-1-1.4-7.61-11.22-10.02-14.43c-2.4-3.21-3.81-5.01-3.81-5.01l-2,1.6
				c0,0,3.61,11.02,5.01,14.43s5.21,9.02,4.01,10.02c-1.2,1-3.21-0.2-4.61-2s-8.21-13.42-9.22-15.03c-1-1.6-2.8-4.01-2.8-4.01
				s-3.81,2.2-5.01,2c-1.2-0.2-2.6,1.2-4.61,1c-2-0.2-3.81-5.41-4.41-8.21c-0.6-2.8,0.6-3.81,0.6-3.81l1.4-0.4
				c0,0-6.01-7.21-7.01-16.83l-26.65,7.61C103.38,283.74,97.37,274.92,101.77,265.91z"/>
			<path class="st7" d="M137.04,292.95c0,0,0.2,4.61,1.6,7.01"/>
		</g>
		<g>
			<path class="st6" d="M242.82,325.01c0,0-12.82,0.2-20.44,4.21c-7.61,4.01-10.22,5.81-18.63,7.01c-8.41,1.2-15.43-2.6-22.24-1.8
				c-6.81,0.8-25.04,7.61-28.25,8.82c-3.21,1.2-7.81,3.41-11.22,3.61c-3.41,0.2-10.02-1.6-10.22,0.2c-0.2,1.8,8.01,4.61,19.43,6.21
				c11.42,1.6,16.03,0.2,20.04-0.8c4.01-1,9.22-2.4,9.22-2.4s-0.4,6.61,2.6,6.01s5.01-5.01,8.62-6.21
				c3.61-1.2,18.23,3.21,25.45,3.01c7.21-0.2,26.05-0.2,33.06-4.61c7.01-4.41,9.02-9.42,5.21-14.43c-3.81-5.01-9.82-9.22-9.82-9.22"
				/>
			<path class="st10" d="M218.98,342.44c-1.21-4.66-3.72-7.15-6.07-8.48c-2.52,1-5.19,1.71-9.16,2.27c-8.41,1.2-15.43-2.6-22.24-1.8
				c-6.81,0.8-25.04,7.61-28.25,8.82c-3.21,1.2-7.81,3.41-11.22,3.61c-3.41,0.2-10.02-1.6-10.22,0.2c-0.2,1.8,8.01,4.61,19.43,6.21
				c11.42,1.6,16.03,0.2,20.04-0.8c4.01-1,9.22-2.4,9.22-2.4s-0.4,6.61,2.6,6.01s5.01-5.01,8.62-6.21
				c3.61-1.2,18.23,3.21,25.45,3.01c0.53-0.01,1.13-0.03,1.78-0.04C219.77,350.61,220.23,347.24,218.98,342.44z"/>
			<path class="st7" d="M180.51,350.06c0,0-0.2-1.2,2.2-3.61c2.4-2.4,4.81-4.61,4.81-4.61"/>
			<path class="st7" d="M187.93,352.06c0,0,1.8-2.8,4.61-4.01c2.81-1.2,6.81-3.81,5.81-7.01"/>
			<line class="st7" x1="154.73" y1="346.14" x2="149.3" y2="347.75"/>
			<path class="st7" d="M135.97,349.85c0,0-2.47-3.21,0.12-3.7c2.59-0.49,18.51,3.21,18.51,3.21l5.8-2.47"/>
			<path class="st7" d="M139.04,350.46c0,0-2.81-3.21,1.2-2.81c4.01,0.4,17.23,3.21,17.23,3.21l11.22-2.6"/>
		</g>
		<path class="st7" d="M88.5,267.21c0,0-2.23,10.93,2.68,19.63"/>
	</g>
</g>
<g id="Speaker">
	<g>
		<polygon class="st6" points="241.97,82.81 225.53,82.81 225.53,113.36 241.97,113.36 267.38,128.03 267.38,68.15 		"/>
		<path class="st12" d="M295.06,97.64l8.66-8.66c1.56-1.56,1.56-4.09,0-5.66c-1.56-1.56-4.09-1.56-5.66,0l-8.66,8.66l-8.66-8.66
			c-1.56-1.56-4.09-1.56-5.66,0c-1.56,1.56-1.56,4.09,0,5.66l8.66,8.66l-8.66,8.66c-1.56,1.56-1.56,4.09,0,5.66
			c0.78,0.78,1.8,1.17,2.83,1.17c1.02,0,2.05-0.39,2.83-1.17l8.66-8.66l8.66,8.66c0.78,0.78,1.8,1.17,2.83,1.17
			c1.02,0,2.05-0.39,2.83-1.17c1.56-1.56,1.56-4.09,0-5.66L295.06,97.64z"/>
	</g>
</g>
<g id="Line">
	<g>
		<line class="st7" x1="470.74" y1="458.85" x2="482.3" y2="458.85"/>
		<line class="st7" x1="57.95" y1="458.85" x2="462.17" y2="458.85"/>
		<line class="st7" x1="26.01" y1="458.85" x2="48.32" y2="458.85"/>
	</g>
</g>
</svg>
