<?xml version="1.0" encoding="utf-8"?>
<!-- Generator: Adobe Illustrator 26.1.0, SVG Export Plug-In . SVG Version: 6.00 Build 0)  -->
<svg version="1.1" xmlns="http://www.w3.org/2000/svg" xmlns:xlink="http://www.w3.org/1999/xlink" x="0px" y="0px"
	 viewBox="0 0 500 500" style="enable-background:new 0 0 500 500;" xml:space="preserve">
<style type="text/css">
	.st0{fill:#F5F5F5;}
	.st1{fill:#BA68C8;}
	.st2{opacity:0.65;}
	.st3{fill:#FFFFFF;}
	.st4{opacity:0.3;}
	.st5{fill:#E0E0E0;}
	.st6{fill:#FFA8A7;}
	.st7{fill:#263238;}
	.st8{fill:#37474F;}
	.st9{fill:#FAFAFA;}
	.st10{fill:#F0F0F0;}
	.st11{fill:#EBEBEB;}
	.st12{fill:#455A64;}
	.st13{fill:#F28F8F;}
	.st14{fill:#B16668;}
	.st15{fill:#9A4A4D;}
</style>
<g id="Floor">
	<path id="Floor_00000054235454946884285890000001738935433422304934_" class="st0" d="M98.35,274.6
		c-83.75,48.36-83.75,126.75,0,175.11c83.76,48.35,219.55,48.35,303.3,0c83.75-48.36,83.75-126.75,0-175.11
		C317.89,226.25,182.1,226.25,98.35,274.6z"/>
</g>
<g id="Plants">
	<g id="Plants_00000059303226784178879460000008081875220070060954_">
		<g id="XMLID_00000049907650221837429440000011727844351289270176_">
			<g id="XMLID_00000181770718395584810840000012073816886932097693_">
				<path id="XMLID_00000145778504738210913780000001206967059002893463_" class="st1" d="M108.78,381.37l8.21-6.21
					c0,0,2.54-22.53-2.01-41.95c-6.4-27.3-25.91-35.45-32.54-32.2c-6.63,3.25-7.63,11.55,5.88,26.6
					C96.29,336.5,107.12,355.72,108.78,381.37z"/>
			</g>
			<g id="XMLID_00000021826319703559986170000017498948339735804552_" class="st2">
				<path id="XMLID_00000183959096513225986980000011628655710386176911_" class="st3" d="M108.78,381.37l8.21-6.21
					c0,0,2.54-22.53-2.01-41.95c-6.4-27.3-25.91-35.45-32.54-32.2c-6.63,3.25-7.63,11.55,5.88,26.6
					C96.29,336.5,107.12,355.72,108.78,381.37z"/>
			</g>
			<g id="XMLID_00000141424048551040818930000000259651779754884244_">
				<path id="XMLID_00000005231407735164151020000002598622056498208702_" class="st3" d="M111.1,370.17c-0.03,0-0.06,0-0.09,0
					c-0.34-0.02-0.6-0.32-0.58-0.66c1.67-26.13-10.82-53.7-23.35-64.25c-0.26-0.22-0.29-0.61-0.07-0.87
					c0.22-0.26,0.61-0.29,0.87-0.07c12.76,10.75,25.48,38.77,23.79,65.28C111.66,369.9,111.41,370.15,111.1,370.17z"/>
			</g>
		</g>
		<g id="XMLID_00000049197293429954622040000007037796989399919495_">
			<g id="XMLID_00000097497160090463279790000010203404590397692833_">
				<path id="XMLID_00000024687471743001540310000001142564258052155824_" class="st1" d="M88.12,397c-1.24,0.84-5.13-1.73-6.2-2.34
					c-1.83-1.04-3.37-2.6-4.45-4.41c-1.25-2.1-1.7-4.42-1.54-6.87c0.09-1.27,0.35-2.51,0.61-3.76c0.26-1.22,0.51-2.44,0.77-3.66
					c0.25-1.2,0.5-2.45,0.26-3.65c-0.49-2.43-2.8-3.98-4.88-5.32c-2.31-1.48-4.74-3.47-4.95-6.42c-0.16-2.28,0.86-4.48,2.14-6.37
					c1.28-1.89,2.84-3.59,3.97-5.57c0.82-1.42,1.42-3.07,1.15-4.69c-0.17-1.01-0.66-1.93-1.21-2.79c-1.18-1.84-2.69-3.5-3.56-5.51
					c-0.87-2.01-0.96-4.58,0.54-6.18c1.23-1.31,3.18-1.62,4.98-1.64c1.66-0.01,3.34,0.61,4.84,1.31c4.87,2.26,7.96,7.61,13.07,9.24
					c1.97,0.63,4.09,0.65,6.12,1.03c2.04,0.38,4.15,1.25,5.21,3.03c2.09,3.51-0.96,8.25,0.61,12.02c1.39,3.34,4.81,4.4,6.9,7.35
					c0.92,1.29,1.22,2.83,1.2,4.42c-0.03,2.68-0.27,4.66-1.33,7.71c-0.87,2.52-3.61,7.43-3.61,7.43S88.31,396.87,88.12,397z"/>
			</g>
			<g id="XMLID_00000153688533205364451690000006671649400800349862_" class="st4">
				<path id="XMLID_00000147910577736836858980000006785864115634661565_" class="st3" d="M88.12,397c-1.24,0.84-5.13-1.73-6.2-2.34
					c-1.83-1.04-3.37-2.6-4.45-4.41c-1.25-2.1-1.7-4.42-1.54-6.87c0.09-1.27,0.35-2.51,0.61-3.76c0.26-1.22,0.51-2.44,0.77-3.66
					c0.25-1.2,0.5-2.45,0.26-3.65c-0.49-2.43-2.8-3.98-4.88-5.32c-2.31-1.48-4.74-3.47-4.95-6.42c-0.16-2.28,0.86-4.48,2.14-6.37
					c1.28-1.89,2.84-3.59,3.97-5.57c0.82-1.42,1.42-3.07,1.15-4.69c-0.17-1.01-0.66-1.93-1.21-2.79c-1.18-1.84-2.69-3.5-3.56-5.51
					c-0.87-2.01-0.96-4.58,0.54-6.18c1.23-1.31,3.18-1.62,4.98-1.64c1.66-0.01,3.34,0.61,4.84,1.31c4.87,2.26,7.96,7.61,13.07,9.24
					c1.97,0.63,4.09,0.65,6.12,1.03c2.04,0.38,4.15,1.25,5.21,3.03c2.09,3.51-0.96,8.25,0.61,12.02c1.39,3.34,4.81,4.4,6.9,7.35
					c0.92,1.29,1.22,2.83,1.2,4.42c-0.03,2.68-0.27,4.66-1.33,7.71c-0.87,2.52-3.61,7.43-3.61,7.43S88.31,396.87,88.12,397z"/>
			</g>
			<g id="XMLID_00000047058725608334027960000003071707191705570749_">
				<path id="XMLID_00000169538258284009368120000016367057657256195238_" class="st3" d="M100.09,388.73c-0.01,0-0.02,0-0.02,0
					c-0.33,0.01-0.6-0.24-0.61-0.57c-0.74-23.22-13.54-47.97-22.02-54.81c-0.25-0.2-0.29-0.57-0.09-0.82
					c0.2-0.25,0.57-0.29,0.82-0.09c8.65,6.98,21.7,32.14,22.45,55.68C100.64,388.44,100.4,388.71,100.09,388.73z"/>
			</g>
			<g id="XMLID_00000028284240794137749580000000724202198178586796_">
				<path id="XMLID_00000139296291025471604790000006911405073002699650_" class="st3" d="M94.28,360.71c-0.06,0-0.12,0-0.17-0.01
					c-7.61-1.75-16.91-1.47-17-1.47c-0.32,0.01-0.59-0.24-0.6-0.57c-0.01-0.32,0.22-0.59,0.57-0.6c0.09,0,9.54-0.29,17.3,1.5
					c0.31,0.07,0.51,0.39,0.44,0.7C94.75,360.51,94.53,360.69,94.28,360.71z"/>
			</g>
		</g>
	</g>
	<g id="Plants_00000098912305346664635100000016870578462900791957_">
		<g id="XMLID_00000021827942755313343570000008278287882030469304_">
			<g id="XMLID_00000121251096483291302030000009405299329831353219_">
				<path id="XMLID_00000144296656825239478100000016220003252820686766_" class="st1" d="M391.88,381.37l-8.21-6.21
					c0,0-2.54-22.53,2.01-41.95c6.4-27.3,25.91-35.45,32.54-32.2c6.63,3.25,7.63,11.55-5.88,26.6
					C404.37,336.5,393.54,355.72,391.88,381.37z"/>
			</g>
			<g id="XMLID_00000070809594230477557550000003905590291654525867_" class="st2">
				<path id="XMLID_00000013909310273411216470000011492499032171600303_" class="st3" d="M391.88,381.37l-8.21-6.21
					c0,0-2.54-22.53,2.01-41.95c6.4-27.3,25.91-35.45,32.54-32.2c6.63,3.25,7.63,11.55-5.88,26.6
					C404.37,336.5,393.54,355.72,391.88,381.37z"/>
			</g>
			<g id="XMLID_00000066497051759408909580000017252901862354848910_">
				<path id="XMLID_00000025412272357166561470000008566287079733126529_" class="st3" d="M389.56,370.17c0.03,0,0.06,0,0.09,0
					c0.34-0.02,0.6-0.32,0.58-0.66c-1.67-26.13,10.82-53.7,23.35-64.25c0.26-0.22,0.29-0.61,0.07-0.87
					c-0.22-0.26-0.61-0.29-0.87-0.07c-12.76,10.75-25.48,38.77-23.79,65.28C389.01,369.9,389.26,370.15,389.56,370.17z"/>
			</g>
		</g>
		<g id="XMLID_00000078767766224502827930000008963253330765429433_">
			<g id="XMLID_00000058562549785530238780000010978320130424953533_">
				<path id="XMLID_00000089533941581286098540000008042204436493399685_" class="st1" d="M412.54,397c1.24,0.84,5.13-1.73,6.2-2.34
					c1.83-1.04,3.37-2.6,4.45-4.41c1.25-2.1,1.7-4.42,1.54-6.87c-0.09-1.27-0.35-2.51-0.61-3.76c-0.26-1.22-0.51-2.44-0.77-3.66
					c-0.25-1.2-0.5-2.45-0.26-3.65c0.49-2.43,2.8-3.98,4.88-5.32c2.31-1.48,4.74-3.47,4.95-6.42c0.16-2.28-0.86-4.48-2.14-6.37
					c-1.28-1.89-2.84-3.59-3.97-5.57c-0.82-1.42-1.42-3.07-1.15-4.69c0.17-1.01,0.66-1.93,1.21-2.79c1.18-1.84,2.69-3.5,3.56-5.51
					c0.87-2.01,0.96-4.58-0.54-6.18c-1.23-1.31-3.18-1.62-4.98-1.64c-1.66-0.01-3.34,0.61-4.84,1.31
					c-4.87,2.26-7.96,7.61-13.07,9.24c-1.97,0.63-4.09,0.65-6.12,1.03c-2.04,0.38-4.15,1.25-5.21,3.03
					c-2.09,3.51,0.96,8.25-0.61,12.02c-1.39,3.34-4.81,4.4-6.9,7.35c-0.92,1.29-1.22,2.83-1.2,4.42c0.03,2.68,0.27,4.66,1.33,7.71
					c0.87,2.52,3.61,7.43,3.61,7.43S412.35,396.87,412.54,397z"/>
			</g>
			<g id="XMLID_00000047775337954036425640000000565904263324639416_" class="st4">
				<path id="XMLID_00000139254522909879492300000008968680271327217291_" class="st3" d="M412.54,397c1.24,0.84,5.13-1.73,6.2-2.34
					c1.83-1.04,3.37-2.6,4.45-4.41c1.25-2.1,1.7-4.42,1.54-6.87c-0.09-1.27-0.35-2.51-0.61-3.76c-0.26-1.22-0.51-2.44-0.77-3.66
					c-0.25-1.2-0.5-2.45-0.26-3.65c0.49-2.43,2.8-3.98,4.88-5.32c2.31-1.48,4.74-3.47,4.95-6.42c0.16-2.28-0.86-4.48-2.14-6.37
					c-1.28-1.89-2.84-3.59-3.97-5.57c-0.82-1.42-1.42-3.07-1.15-4.69c0.17-1.01,0.66-1.93,1.21-2.79c1.18-1.84,2.69-3.5,3.56-5.51
					c0.87-2.01,0.96-4.58-0.54-6.18c-1.23-1.31-3.18-1.62-4.98-1.64c-1.66-0.01-3.34,0.61-4.84,1.31
					c-4.87,2.26-7.96,7.61-13.07,9.24c-1.97,0.63-4.09,0.65-6.12,1.03c-2.04,0.38-4.15,1.25-5.21,3.03
					c-2.09,3.51,0.96,8.25-0.61,12.02c-1.39,3.34-4.81,4.4-6.9,7.35c-0.92,1.29-1.22,2.83-1.2,4.42c0.03,2.68,0.27,4.66,1.33,7.71
					c0.87,2.52,3.61,7.43,3.61,7.43S412.35,396.87,412.54,397z"/>
			</g>
			<g id="XMLID_00000109029459609310576290000017820313128154334649_">
				<path id="XMLID_00000183223036179622183710000013850147137754022038_" class="st3" d="M400.57,388.73c0.01,0,0.02,0,0.02,0
					c0.33,0.01,0.6-0.24,0.61-0.57c0.74-23.22,13.54-47.97,22.02-54.81c0.25-0.2,0.29-0.57,0.09-0.82c-0.2-0.25-0.57-0.29-0.82-0.09
					c-8.65,6.98-21.7,32.14-22.45,55.68C400.02,388.44,400.26,388.71,400.57,388.73z"/>
			</g>
			<g id="XMLID_00000126291674620008214960000018016774233297296270_">
				<path id="XMLID_00000069369176927053000400000002468142855690892437_" class="st3" d="M406.38,360.71c0.06,0,0.12,0,0.17-0.01
					c7.61-1.75,16.91-1.47,17-1.47c0.32,0.01,0.59-0.24,0.6-0.57c0.01-0.32-0.21-0.59-0.57-0.6c-0.09,0-9.54-0.29-17.3,1.5
					c-0.31,0.07-0.51,0.39-0.44,0.7C405.91,360.51,406.13,360.69,406.38,360.71z"/>
			</g>
		</g>
	</g>
</g>
<g id="Shadows">
	
		<ellipse id="Shadow_00000123435255023775885340000007145623446757383326_" class="st5" cx="162.51" cy="410.46" rx="78.16" ry="45.13"/>
	
		<ellipse id="Shadow_00000128479673371840221260000004124813491102613946_" class="st5" cx="338.49" cy="410.46" rx="78.16" ry="45.13"/>
</g>
<g id="Character_2">
	<g id="Character_00000171680974646372688240000014506025598451858879_">
		<g id="Bottom_00000102542188856302650390000007288912803716249481_">
			<g>
				<path class="st6" d="M384.35,384.01c-0.38-11.65,0.5-19.3,0.34-39.5l0,0c-0.01-6.06-0.12-12.55-0.44-18.32
					c-1.05-19.42-3.93-26.1-4.14-29.85c0,0-0.01-30.19-0.58-72.65c-0.27-19.98-5.95-27.7-10.4-38.37h-54.95
					c-6.57,26.05-9.59,83.84-9.85,110.8c-0.13,13.74,5.2,75.22,5.29,76.92c0.29,6.01-0.66,9.38-3.05,11.86
					c-5.01,5.2-12.23,8.42-18.48,12.93c0.85,2.37,9.31,3.55,13.02,1.82c5.92-2.77,11.81-7.06,13.84-8.5
					c5.13-3.67,12.74-4.7,12.92-10.41c0.03-0.71,0.35-2.55,0.32-2.67c0.15-3.33,5.78-41.18,7.46-52.49
					c1.5-10.07,1.5-26.75,1.5-26.75l4.9-41.16c0,0,3.82,24.56,7.17,41.46c2.48,12.53,7.85,38.4,11.22,52.09
					c2.4,9.75,5.17,21.4,7.07,32.11c-0.3,4.31,3.78,26.77,4.78,31.99c1,5.22,12.33,5.54,13.2-3.39
					C386.05,405.99,384.45,386.87,384.35,384.01z"/>
			</g>
			<g>
				<path class="st7" d="M280.36,405.92c-0.31,0-0.75,3.47,0.97,4.92c1.98,1.68,7.79,4.4,15.41,3.34
					c7.62-1.06,11.73-3.47,14.76-6.05c3.03-2.59,7.27-6.23,10.71-7.03c3.2-0.74,6.67-2.23,7.68-3.23c1.02-1,0.83-5.41,0.83-5.41
					L280.36,405.92z"/>
				<path id="XMLID_00000051385947233840830260000015075446702922696853_" class="st8" d="M328.49,375.17c0,0,0.75,0.17,0.96,1.19
					c0.25,1.21-0.25,4.94,0.27,6.92c0.73,2.76,1.26,8.43,0.86,10.7c-0.4,2.26-5.61,3.88-8.93,5.19c-3.4,1.33-7.32,4.05-10.75,6.94
					c-3.56,2.99-11.07,6.03-16.04,6.16c-7.59,0.19-12.53-1.82-14.07-4.53c-1.91-3.36-1.54-6.43,7.14-10.56
					c1.64-0.78,7.41-4.27,9.37-5.54c2.08-1.34,4.06-2.82,5.89-4.48c0.92-0.84,1.81-1.73,2.64-2.66c0.73-0.82,1.76-1.82,2.18-2.84
					c0.1-0.23,0.16-0.5,0.25-0.74c0.25-0.69,0.42-1.33,0.55-2.05c0.13-0.73,0.21-1.78,0.9-2.23c0.79-0.51,2.22-0.46,3.11-0.4
					c1.13,0.07,3.63,0.6,4.73,0.88c1.95,0.49,2.49,1.04,3.27,2.24c0.59,0.92,0.69,2.08,0.75,3.15c0.03,0.51,0.02,1.02,0.03,1.53
					c0,0.22-0.08,0.61,0.22,0.52c0.29-0.09,0.61-0.85,0.71-1.11c0.24-0.57,0.39-1.18,0.64-1.75c0.3-0.64,0.63-1.31,1.07-1.86
					c0.41-0.52,0.85-1.01,1.37-1.42c0.47-0.37,1.07-0.56,1.48-0.98C327.61,376.89,328.45,375.6,328.49,375.17z"/>
				<path class="st9" d="M286.52,397.85c11,0.65,15.61,8.5,16.12,12.7c-2.71,0.99-5.52,1.66-7.79,1.72
					c-7.59,0.19-12.84-1.82-14.39-4.53C278.67,404.57,278.76,400.89,286.52,397.85z"/>
				<g>
					<g>
						<path class="st10" d="M304.08,398.9c0.12,0,0.24-0.04,0.34-0.12c0.23-0.19,0.26-0.53,0.07-0.76
							c-1.55-1.86-7.07-5.4-11.06-4.92c-0.3,0.03-0.51,0.3-0.47,0.6c0.03,0.29,0.29,0.5,0.6,0.47c3.72-0.43,8.88,3.07,10.11,4.54
							C303.77,398.84,303.93,398.9,304.08,398.9z"/>
					</g>
					<g>
						<path class="st10" d="M308.79,396.09c0.12,0,0.24-0.04,0.34-0.12c0.23-0.19,0.26-0.53,0.07-0.76
							c-1.55-1.86-7.07-5.4-11.06-4.92c-0.3,0.03-0.51,0.3-0.47,0.6c0.03,0.29,0.29,0.5,0.6,0.47c3.72-0.44,8.88,3.07,10.11,4.54
							C308.48,396.03,308.63,396.1,308.79,396.09z"/>
					</g>
					<g>
						<path class="st10" d="M313.14,392.9c0.12,0,0.24-0.04,0.34-0.13c0.23-0.19,0.26-0.53,0.07-0.76
							c-1.55-1.86-7.08-5.4-11.06-4.92c-0.3,0.03-0.51,0.3-0.47,0.6c0.03,0.29,0.29,0.5,0.6,0.47c3.72-0.43,8.88,3.07,10.11,4.54
							C312.83,392.84,312.99,392.9,313.14,392.9z"/>
					</g>
					<g>
						<path class="st10" d="M317.41,389.71c0.12,0,0.23-0.04,0.33-0.12c0.23-0.19,0.27-0.52,0.08-0.75
							c-2.13-2.64-7.99-5.44-11.97-4.97c-0.3,0.03-0.51,0.3-0.47,0.6c0.03,0.29,0.29,0.5,0.6,0.47c3.59-0.43,9.12,2.24,11.01,4.58
							C317.09,389.64,317.25,389.71,317.41,389.71z"/>
					</g>
				</g>
			</g>
			<g>
				<path class="st7" d="M368.64,419.32c0.22,5.19,0.96,8.64,2.75,11.71c1.79,3.07,5.24,4.08,8.77,3.25
					c3.53-0.83,8.07-3.14,9.15-7.59c1.08-4.45,1.72-7.51,1-12.33L368.64,419.32z"/>
				<path id="XMLID_00000147221345403637968480000002345543436570397358_" class="st8" d="M384.29,381.63
					c1.45,0.14,1.33,7.51,2.05,14.49c0.77,7.48,2.95,10.61,3.65,16.75c0.8,7.01-0.41,10.12-2.93,14.31
					c-2.52,4.19-11.27,8.2-15.45,2.07c-3.41-5-3.08-10.46-3.03-17.46c0.05-7.32-0.35-12.27-1.03-17.71
					c-0.79-6.28-1.33-10.17-0.06-10.74c0.08,0.77,0.16,1.75,0.25,2.51c0.11,0.93,0.36,2.77,0.36,2.77c0.14,0.39,0.51,0.84,0.66,0.21
					c0.1-0.43,0.06-0.87,0.02-1.3c-0.18-1.93,0.79-2.07,1.32-2.22c1.14-0.31,6.57-1.16,7.65-1.21c1.11-0.06,4.93-0.16,5.41,0.48
					c0.33,0.43,0.36,1.15,0.45,2.03c0.11,1.05,0.12,1.71,0.37,1.5c0.3-0.25,0.31-2.25,0.3-2.72c-0.01-0.45-0.02-1.49-0.02-1.94
					C384.28,382.98,384.31,382.08,384.29,381.63z"/>
				<path class="st9" d="M390.49,416.93c0.18,4.35-0.91,7.31-2.88,10.59c-2.52,4.19-11.97,8.2-16.15,2.07
					c-2.08-3.05-2.59-6.62-2.82-10.26C371.28,414.69,386.52,412.88,390.49,416.93z"/>
				<g>
					<g>
						<path class="st10" d="M371.93,411.76c0.06-0.01,0.12-0.02,0.18-0.05c0.06-0.03,6.8-2.69,13.3-1.07
							c0.29,0.07,0.58-0.1,0.65-0.39c0.07-0.29-0.1-0.58-0.39-0.65c-6.87-1.71-13.75,1.02-14.01,1.14
							c-0.27,0.13-0.39,0.44-0.26,0.71C371.49,411.66,371.71,411.78,371.93,411.76z"/>
					</g>
					<g>
						<path class="st10" d="M385.17,405.43c0.2-0.02,0.39-0.15,0.46-0.35c0.1-0.28-0.05-0.59-0.32-0.69
							c-6.45-2.31-13.71,0.88-13.99,1.01c-0.27,0.13-0.37,0.45-0.24,0.72c0.13,0.26,0.46,0.37,0.72,0.24
							c0.06-0.03,7.14-3.11,13.14-0.96C385.02,405.42,385.09,405.43,385.17,405.43z"/>
					</g>
					<g>
						<path class="st10" d="M385.02,400.5c0.2-0.02,0.38-0.15,0.46-0.35c0.1-0.28-0.03-0.59-0.31-0.69
							c-7.1-2.68-13.99,0.82-14.25,0.97c-0.26,0.15-0.34,0.48-0.19,0.73c0.15,0.26,0.48,0.34,0.73,0.19
							c0.06-0.03,6.72-3.38,13.33-0.89C384.86,400.5,384.94,400.51,385.02,400.5z"/>
					</g>
					<g>
						<path class="st11" d="M384.75,395.66c0.2-0.02,0.38-0.14,0.45-0.34c0.11-0.28-0.03-0.59-0.3-0.7
							c-6.65-2.62-14.07,0.96-14.35,1.12c-0.26,0.14-0.35,0.47-0.21,0.73c0.14,0.26,0.47,0.36,0.73,0.21
							c0.06-0.04,7.26-3.49,13.43-1.06C384.58,395.65,384.67,395.66,384.75,395.66z"/>
					</g>
				</g>
			</g>
			<path class="st8" d="M372.96,185.31c6.31,11.98,9.66,23.39,9.74,58.7c0.08,35.31-1.24,45.35-1.17,49.61
				c0.07,4.26,3.79,13.73,3.88,34.82c0.08,17.86-0.07,31.41-0.07,31.41s-2.08,4.22-10.11,4.81c-7.41,0.54-12.81-2.3-12.81-2.3
				s-9.05-29.6-11.49-42.31c-2.81-14.69-8.42-49.64-8.42-49.64l-4.03,28.42c0,0,0.69,11.29-1.14,25.05
				c-2.43,18.37-5.44,32.32-5.44,32.32s-6.76,1.85-13.08,1.65c-6.33-0.2-11.05-3.02-11.05-3.02s-4.22-39.24-4.58-65.23
				c-0.29-20.84,1.17-73.51,3.27-104.28H372.96z"/>
			<path class="st7" d="M316.08,216.71c3,8.66,14.34,14.87,19.34,16.16l3.95,37.55l-0.88,28.4l4.03-28.42l-4.9-44.24
				C337.61,226.17,323.7,224.94,316.08,216.71z M363.82,213.3c0.77,3.4,1.46,6.81,2.2,10.22c0.72,3.42,1.45,6.83,2.23,10.28
				c0.14-3.53-0.12-7.06-0.52-10.56c-0.4-3.5-1-6.97-1.74-10.42c-0.78-3.44-1.68-6.85-2.85-10.19c-1.16-3.33-2.52-6.62-4.37-9.64
				c1,3.39,1.88,6.75,2.71,10.13C362.3,206.51,363.1,209.9,363.82,213.3z M369.85,206.89c1.1,2.06,2.14,4.14,3.2,6.23l3.1,6.37
				c-0.16-2.4-0.74-4.76-1.5-7.03c-0.75-2.28-1.74-4.47-2.83-6.59c-1.13-2.11-2.37-4.16-3.78-6.08c-1.4-1.93-2.93-3.78-4.68-5.43
				c1.01,2.19,2.11,4.27,3.21,6.34C367.66,202.76,368.79,204.81,369.85,206.89z M363.26,295.85c-1.66-9.82-2.79-19.73-3.91-29.66
				c-1.08-9.93-2.16-19.87-3.37-29.8c0.44,9.99,0.99,19.98,1.81,29.95c0.8,9.97,1.85,19.94,3.49,29.84
				c1.76,9.88,3.53,19.68,5.43,29.5c1.87,9.82,3.86,19.61,5.99,29.39c-1.35-9.91-2.83-19.8-4.44-29.66
				C366.67,315.54,364.97,305.66,363.26,295.85z M316.18,260.72l2.27-28.72c-1.64,9.47-2.95,19-3.99,28.56
				c-1.02,9.57-2,19.1-2.19,28.82c0.17,9.67,0.74,19.23,1.37,28.83c0.62,9.59,1.43,19.16,2.4,28.72
				c-0.11-9.61-0.33-19.22-0.67-28.81l-0.49-14.39c-0.16-4.79-0.37-9.6-0.39-14.35c0-4.73,0.36-9.53,0.66-14.31
				C315.45,270.28,315.83,265.5,316.18,260.72z"/>
		</g>
		<g id="Top_00000013889428094193567900000015136665636152769963_">
			<g id="Chest_00000126321248317738110120000007555078447914782353_">
				<path id="Arm_00000057136099292824093860000008650007588194307222_" class="st8" d="M319.69,123.35
					c-9.66,2.88-16.49,5.31-23.01,14.84c-7.45,10.89-19.81,29.79-21.07,42.03c4.32,0.24,20.53,0.37,20.53,0.37l13.04-22.54
					L319.69,123.35z"/>
				<path id="Chest_00000111190808175690646200000003202971353443799224_" class="st12" d="M379.24,199.09
					c-1.03-15.42-1.48-20.87-1.48-29.25c0-8.38,0.52-12.52,0.66-18.71c0.35-15.22-5.18-24.37-8.29-26.99c0,0-4.79-0.95-11.59-2.46
					c-2.33-0.52-4.4-0.78-7.93-1.28c-7.84-1.11-11.52,0-14.45,0.3c-1.45,0.15-7.02,0.4-7.02,0.4c-2.07,0.48-9.44,2.26-9.45,2.27
					c0,0-2.27,2.92-6.7,10.84c-3.38,6.05-5.91,10.2-6.52,23.76c-0.83,18.38-1.11,42.8-1.11,42.8
					C313.86,212.12,365.03,215.64,379.24,199.09z"/>
				<g id="Head_00000080917664579675295850000015857493782012488345_">
					<path id="Hair_00000170280002831185121530000016153853407599031174_" class="st7" d="M360.76,71.25
						c-1.48-9.1-17.26-20.07-35.14-10.79c-17.88,9.29-13.01,20.62-12.21,24.01c0.66,2.81,1.22,5.77,1.17,8.67
						c-0.05,2.65-0.73,5.37-2.4,7.44c-1.66,2.07-4.47,2.5-6.56,1.41c0.35,4.13,2.69,7.4,8.86,10.14c2.4,1.07,6.08,1.32,8.08,0.97
						c-0.95,0.62-2.32,1.6-6.38,1.35c2.49,3.22,11.96,6.63,20.82,1.26c0.4-0.24,0.93-0.22,1.39-0.17c0.57,0.07,1.08,0.39,1.59,0.65
						c3.93,2.03,9.08,1.74,13.3,1c2.35-0.41,4.7-1.09,6.72-2.37c2.02-1.28,3.7-3.2,4.34-5.51c0.43,2.1,0.07,4.34-0.99,6.2
						c1.54-0.44,3.09-0.99,4.33-2.01c2.26-1.87,3.85-5.04,3.64-7.97c-0.21-2.93-1.29-5.56-2.31-8.32c-1.14-3.09-1.85-6.09-1.72-9.42
						c0.1-2.68,0.08-5.13-0.16-7.34C366.64,75.94,364.64,71.88,360.76,71.25z"/>
					<g>
						<path class="st6" d="M354.13,116.9c0-3.16,0-12.81,0-12.81c0.03,0.81,3.8,3.4,7.61,0.17c4.27-3.63,4.36-8.34,2.45-11.31
							c-2.11-3.28-7.29-3.48-9.71,1.47c-1.58,1.73-4.14-0.59-2.58-5.48c0.57-1.79-0.98-3.02-1.79-4.3
							c-0.82-1.29-1.03-2.94-1.14-4.43c-0.32-4.38-1.63-8.26-6.71-8.51c-2.11-0.1-4.2,0.56-6.05,1.57c-0.92,0.5-1.92,1.11-2.94,0.87
							c-1.02-0.24-1.64-1.23-2.39-1.96c-1.18-1.16-2.97-1.95-4.59-1.35c-2.82,1.04-4.39,4.62-5.09,7.3c-1.16,4.41-1.84,8.96-2,13.52
							c-0.4,11.51,2.59,16.83,5.81,19.46c1.8,1.47,4.24,2.33,8.56,2.27c0,0,0.12,1.43,0.2,3.55c0.07,1.94-0.13,3.04-1.93,3.51
							c-1.21,0.31-2.94,0.68-2.94,0.68s-6.02,6.48,5.2,7.94c17.88,2.32,25.81-7.11,25.81-7.11s-2.01-0.48-2.6-0.66
							C354.82,120.55,354.13,120.06,354.13,116.9z"/>
						<g id="XMLID_00000049922229874016064880000007334886748966562749_">
							<path id="XMLID_00000049936900784427944490000007995617103321765024_" class="st13" d="M333.57,113.4
								c7.77-0.23,15.04-3.13,17.68-9.31c0,0-0.29,4.78-4.73,7.76c-5.71,3.83-12.79,3.86-12.79,3.86L333.57,113.4z"/>
						</g>
						<g>
							<path id="XMLID_00000067953839660821241280000013588530578466424715_" class="st7" d="M323.54,79.86l4.81-0.84
								c-0.18-1.35-1.41-2.25-2.73-2.02C324.29,77.23,323.36,78.51,323.54,79.86z"/>
							<path id="XMLID_00000090978258899751573160000017230340482662729629_" class="st7" d="M344.29,81.25l-4.51-2.01
								c0.51-1.28,1.94-1.86,3.18-1.31C344.21,78.49,344.8,79.98,344.29,81.25z"/>
							<path id="XMLID_00000093135951508921149120000017393898368922344356_" class="st7" d="M327.88,86.46
								c0.01,1.11-0.9,2.04-2.03,2.08c-1.12,0.04-2.04-0.83-2.05-1.95c-0.01-1.11,0.9-2.04,2.02-2.08
								C326.96,84.47,327.88,85.34,327.88,86.46z"/>
							<path id="XMLID_00000088841745242114858550000012094850196019655824_" class="st7" d="M342.56,87.85
								c0.01,1.11-0.9,2.04-2.03,2.08c-1.13,0.04-2.04-0.83-2.05-1.95c-0.01-1.11,0.9-2.04,2.02-2.08
								C341.63,85.87,342.55,86.74,342.56,87.85z"/>
						</g>
						<g>
							<g>
								<path class="st12" d="M349.38,83.21l11.74,7.53c-1.3-0.26-2.16-0.28-3.86,0.56l-8.46-5.34L349.38,83.21z"/>
							</g>
							<path class="st12" d="M317.24,83.83c0.77,1.51,0.46,4.19,1.17,5.92c0.73,3.44,6.72,5.75,10.14,2.57
								c0.57-0.55,1-1.21,1.35-1.88c0.92-1.75,0.87-4.29,2.2-4.49c3.65-0.23-0.1,9.16,9.8,9.25c4.8,0.11,6.02-4.4,6.73-8.03
								c0.28-1.05,1.14-1.2,1.33-2.5c0.06-1.39-0.88-1.78-1.93-1.87c-3.03-0.57-7.28-1.11-9.71-0.61c-3.04,0.63-4.14,1.53-5.81,1.39
								c-1.56-0.14-2.51-1.2-5.28-2.3c-2.48-0.97-6.62-1.13-9.7-0.97C316.02,80.59,316.52,83.11,317.24,83.83z M336.07,84.98
								c2.22-2.25,9.31-1.89,10.7-0.22c0.76,0.99-0.01,4.21-0.53,5.72c-0.07,0.18-0.14,0.36-0.23,0.55
								c-0.68,2.03-2.88,2.88-5.01,2.75c-1.58-0.1-3.12-0.74-3.97-1.87c-0.78-0.96-1.09-2.06-1.22-2.82
								C335.55,87.55,335.46,85.76,336.07,84.98z M323.19,81.82c5.43,0.91,7.49,2.32,5.53,7.71c-0.73,2.58-4.57,3.72-7.17,2.19
								c-1.97-1.17-2.35-3.5-2.53-4.58C318.37,82.66,318.69,81.51,323.19,81.82z"/>
						</g>
						<path class="st13" d="M325.97,93.96l6.2,3.51l1.74-9.81c-0.19-0.61-0.4-1.1-0.67-1.3L325.97,93.96z"/>
					</g>
					<g>
						<path id="XMLID_00000031906554451911130480000011919337924297411507_" class="st14" d="M338.2,98.41l-7.76,2.06
							c0.53,2.22,2.69,3.56,4.83,2.99C337.42,102.89,338.73,100.63,338.2,98.41z"/>
						<path class="st13" d="M337.32,99.74c0.33-0.05,0.65-0.05,0.97-0.03c-0.12,1.74-1.29,3.3-3.02,3.76
							c-0.43,0.11-0.86,0.13-1.28,0.1C333.78,101.76,335.24,100.06,337.32,99.74z"/>
					</g>
				</g>
				<path id="Arm_00000114068033616079252950000005908383936864560549_" class="st8" d="M370.13,124.12
					c11.57,3.56,12.66,9.47,12.83,14.05c0.23,6.25-4.07,19.43-7.49,29.48c-6.38,18.77-12.34,26.42-19.05,26.42l-5.18-26.17
					l5.82-18.52C357.07,149.38,362.26,128.65,370.13,124.12z"/>
			</g>
			<g id="Hands_00000042699296606801121600000001077480972905833663_">
				<path class="st6" d="M328.5,144.06c6.79,5.92,13.57,11.65,19.65,16.63c5.17,4.24,8.83,7.13,10.82,10.55
					c1.99,3.42,3.25,16.33,0.88,20.95c-2.37,4.62-14.81-0.03-19.69-4.84c-4.87-4.81-8.61-13.69-12.61-20.13
					c-4.01-6.44-6.95-10.72-10.4-12.53L328.5,144.06z"/>
				<path class="st13" d="M317.15,154.69l0.99-0.93c3.65,1.49,6.1,3.93,9.05,8.27c3.73,5.49,8.83,22.44,15.15,27.12
					c-0.82-0.58-1.56-1.19-2.18-1.8c-4.87-4.81-8.61-13.69-12.61-20.13C323.54,160.78,320.59,156.5,317.15,154.69z"/>
				<g>
					<path class="st6" d="M295.43,154.42c0.7,1.16-0.6,3.14-1.5,4.39s-4.07,4.3-7.7,6.63c-3.85,2.47-7.58,5.89-9.41,9.82
						c-1.83,3.93-1.71,11.36,0.09,14.03c1.79,2.67,6.14,1.7,10.01-0.12c5.33-2.51,8.23-6.46,12.21-12.28
						c4.32-6.34,7.62-11.73,10.22-14.91C311.95,158.8,295.43,154.42,295.43,154.42z"/>
					<path class="st13" d="M293.64,182.54c2.52-3.37,9.18-18.33,7.68-21.16c-1.5-2.83-5.65-4.71-6.64-3.67v0
						c0.7-1.13,1.28-2.43,0.76-3.29c0,0,16.52,4.38,13.91,7.56c-2.6,3.18-5.9,8.57-10.22,14.91c-3.97,5.83-6.88,9.78-12.21,12.28
						C286.91,189.17,291.12,185.91,293.64,182.54z"/>
					<path class="st14" d="M290.51,152.26c2.34,0.22,4.27,1.65,6.1,3.03c1.84,1.37,7.93,5.68,11.41,5.89
						C311.51,161.4,296.77,148.46,290.51,152.26z"/>
				</g>
				<g>
					<path class="st6" d="M300.33,146.29c-3.61-0.7-6.2,0.86-9.5,1.1c-3.3,0.24-5.23-0.09-7.53,1.29c-2.3,1.38-3.25,3.24-0.4,4.08
						c2.85,0.84,5.57-0.61,8.35-0.43c2.77,0.19,4.63,0.58,7.73,3.11c3.1,2.54,7.41,7.01,9.98,8.65c2.56,1.65,4.08,0.4,4.08,0.4
						s1.69,1.98,3.24,2.55c1.55,0.57,2.32-0.89,2.2-1.81c1.38,0.13,2.57-0.59,2.25-2.29c-0.32-1.71-3.02-4.83-3.02-4.83
						s1.61,1.35,2.46,1.98c1.59,1.17,3.22-0.11,2.26-2.43c-0.96-2.33-9.04-8.98-12.01-10.04c-2.97-1.06-5.76-0.13-5.76-0.13
						S302.84,146.77,300.33,146.29z"/>
					<path class="st13" d="M318.91,157.71c2.4,1.95,3.19,2.25,3.7,1.89c-0.33,0.96-1.39,1.26-2.44,0.49
						c-0.85-0.63-2.46-1.98-2.46-1.98l-5.92-6.06C311.79,152.04,316.41,155.68,318.91,157.71z"/>
					<path class="st13" d="M311.05,154.42c0.47,0.94,2.17,2.46,3.59,4.33c1.43,1.86,3.12,4.11,4.31,5.03
						c0.93,0.72,1.67-0.03,1.83-0.19c-0.06,1.24-1.1,1.76-2.3,1.65c-0.21-1.26-1.95-3.45-3.61-5.5c-1.66-2.05-4.93-5.22-4.74-5.76
						C310.31,153.42,310.57,153.48,311.05,154.42z"/>
					<path class="st13" d="M307.44,155.07c-0.53-0.61,0.43-1.49,0.81-0.64c0.39,0.85-0.09,0.91,1.15,2.35
						c1.23,1.44,3.65,3.99,4.29,4.89c0.64,0.91,1.62,2.14,0.89,4.31c0,0,0,0,0,0c-0.88-0.72-1.54-1.5-1.54-1.5
						c0.76-0.62,0.71-2.31-0.67-3.85C310.99,159.1,307.98,155.68,307.44,155.07z"/>
					<path class="st13" d="M281.16,151.35L281.16,151.35c0.57,0.87,3.39,0.83,5.25,0.18c1.86-0.65,5.97-1.76,8.31-1.31
						c2.34,0.45,4.71,2,7.18,5.16c2.47,3.16,5.85,6.8,7.93,8.17c2.08,1.37,2.91,1.12,2.91,1.12c-0.56,0.27-1.88,0.64-3.78-0.58
						c-2.56-1.65-6.87-6.12-9.98-8.65c-3.1-2.54-4.95-2.93-7.73-3.11c-2.77-0.19-5.5,1.26-8.35,0.43
						C281.76,152.42,281.23,151.92,281.16,151.35z"/>
				</g>
				<g>
					<path class="st6" d="M316.86,153.78c-2.21-0.49-3.59-0.57-6.51-0.63c-4.01-0.39-7.78-0.76-8.48-1.78
						c-0.69-1.02-3.15-3.48-3.2-4.6c-0.05-1.12,0.73-1.83,0.73-1.83s-1.02-0.97-1.44-2.28c-0.43-1.31,0.52-2.9,0.52-2.9
						s-0.74-0.56-1.09-1.75c-0.39-1.36,0.51-2.89,1.95-3.33c-0.97-0.72-1.27-2-1.17-3.04c0.14-1.46,2.02-2.52,4.47-1.96
						c2.45,0.55,7.32,1.97,8.43,1.24c1.1-0.73,0.57-4.64,0.7-7.13c0.14-2.49,1.75-6.65,4.11-6.22c1.25,0.23,0.59,4.07,1.2,7.5
						c0.61,3.43,3.88,7.34,5.65,11.58c0.84,2,3.09,4.67,5.77,7.43c-0.47,4.81-4.9,9.82-8.24,10.81
						C318.84,154.27,318.02,154.04,316.86,153.78z"/>
					<path class="st13" d="M311.07,130.91c0.68-0.44,0.74-2.08,0.71-3.86l0,0c0.48,1.7,2.6,3.71,1.65,4.5
						c-0.95,0.78-4.31-0.36-6.47-0.86l0,0C308.78,131.07,310.47,131.3,311.07,130.91z"/>
					<g>
						<path class="st13" d="M298.33,135.23c0.29-0.25,0.63-0.44,1.01-0.56c0,0,2.64,1.31,4.98,2.28
							C300.93,136.5,299.19,135.77,298.33,135.23z"/>
						<path class="st13" d="M298.48,139.75c1.32,0.94,4.17,2.44,4.17,2.44s-2.91-0.71-4.63-1.35
							C298.21,140.21,298.48,139.75,298.48,139.75z"/>
						<path class="st13" d="M299.4,144.94L299.4,144.94L299.4,144.94c1.04,0.97,4.09,2.92,4.09,2.92s-3.06-0.98-4.69-1.96
							C299.02,145.3,299.4,144.94,299.4,144.94z"/>
					</g>
					<path class="st13" d="M299.36,148.22c1.22,1.56,2.84,3.15,7.3,3.64c3.79,0.42,7.73,0.43,11.48,1.9
						c0.61,0.24,1.77,0.82,2.18,1.09c0,0.01-0.12,0.04-0.12,0.04c-3.59-1.28-6.32-1.4-9.86-1.75c-4.01-0.39-7.78-0.76-8.48-1.78
						C301.41,150.68,300.15,149.35,299.36,148.22L299.36,148.22z"/>
					<path class="st14" d="M310.35,153.14l-3.57-0.5c-1.18-0.18-2.38-0.34-3.51-0.68c-0.56-0.19-1.12-0.36-1.42-0.88
						c-0.38-0.48-0.77-0.93-1.17-1.38c-0.4-0.45-0.79-0.9-1.15-1.38c-0.35-0.47-0.75-0.95-0.86-1.55c0.05,0.61,0.42,1.14,0.73,1.64
						c0.34,0.5,0.71,0.98,1.09,1.45c0.37,0.47,0.77,0.93,1.12,1.4c0.08,0.12,0.17,0.24,0.3,0.37c0.13,0.11,0.26,0.21,0.4,0.28
						c0.28,0.16,0.57,0.26,0.86,0.35c1.18,0.33,2.38,0.49,3.58,0.62C307.95,153.01,309.15,153.09,310.35,153.14z"/>
					<path class="st13" d="M305.45,136.84c0.23,0.16,0.4,0.37,0.74,0.7c0.27,0.26,0.6,0.46,0.94,0.62c0.16,0.07,0.45,0.15,0.62,0.18
						c0.17,0.03,0.96,0.07,1.07,0.09c0.14,0.02,0.29,0.06,0.4,0.15c0.03,0.03,0.02,0.1-0.02,0.12c-0.21,0.12-0.47,0.15-0.71,0.17
						c-0.26,0.02-0.51,0.11-0.77,0.1c-0.39-0.01-0.75-0.1-1.09-0.29c-0.32-0.18-0.55-0.5-0.76-0.79c-0.3-0.42-0.36-0.64-0.45-1.02
						C305.44,136.85,305.45,136.83,305.45,136.84z"/>
					<path class="st13" d="M303.88,141.98c0.23,0.16,0.4,0.37,0.74,0.7c0.27,0.26,0.6,0.46,0.94,0.62c0.16,0.07,0.45,0.15,0.62,0.18
						c0.17,0.03,0.96,0.07,1.07,0.09c0.14,0.02,0.29,0.06,0.4,0.15c0.03,0.03,0.02,0.1-0.02,0.12c-0.21,0.12-0.47,0.15-0.71,0.17
						c-0.26,0.02-0.51,0.11-0.77,0.1c-0.39-0.01-0.75-0.1-1.09-0.29c-0.32-0.18-0.55-0.5-0.76-0.79c-0.3-0.42-0.36-0.64-0.45-1.02
						C303.87,141.99,303.87,141.98,303.88,141.98z"/>
					<path class="st13" d="M303.44,146.42c0.23,0.16,0.4,0.37,0.74,0.7c0.27,0.26,0.6,0.46,0.94,0.62c0.16,0.07,0.45,0.15,0.62,0.18
						c0.17,0.03,0.96,0.07,1.07,0.09c0.14,0.02,0.29,0.06,0.4,0.15c0.03,0.03,0.02,0.1-0.02,0.12c-0.21,0.12-0.47,0.15-0.71,0.17
						c-0.26,0.02-0.51,0.11-0.77,0.1c-0.39-0.01-0.75-0.1-1.09-0.29c-0.32-0.18-0.55-0.5-0.76-0.79c-0.3-0.42-0.36-0.64-0.45-1.02
						C303.43,146.43,303.44,146.42,303.44,146.42z"/>
				</g>
			</g>
		</g>
	</g>
</g>
<g id="Speech_Bubble_2">
	<g id="Speech_Bubble_00000067197945793974462930000002880511189875508667_">
		<g id="Speech_Bubble_00000090295969455545070960000006089177229935004091_">
			<path class="st3" d="M410.43,45.88c-7.2,4.65-11.94,11.69-13.89,19.42l-0.69,3.65c-0.98,7.38,0.55,15.13,4.89,21.86
				c9.72,15.06,29.88,19.41,44.93,9.69c6.73-4.34,11.31-10.78,13.46-17.9l0.87-3.62c1.42-7.84,0-16.21-4.65-23.41
				C445.65,40.51,425.49,36.16,410.43,45.88z"/>
			<path class="st12" d="M408.94,43.57c-14.65,9.45-19.94,28.02-13.26,43.53l-6.44,8.87c-1.1,1.51,0.24,3.59,2.07,3.21l10.73-2.21
				c11.38,12.48,30.48,15.31,45.14,5.85c16.34-10.53,21.05-32.41,10.51-48.74C447.14,37.74,425.27,33.03,408.94,43.57z
				 M455.37,55.57c4.65,7.2,6.07,15.57,4.65,23.41l-0.87,3.62c-2.15,7.12-6.73,13.56-13.46,17.9c-15.06,9.72-35.21,5.37-44.93-9.69
				c-4.34-6.73-5.86-14.48-4.89-21.86l0.69-3.65c1.95-7.73,6.68-14.77,13.89-19.42C425.49,36.16,445.65,40.51,455.37,55.57z"/>
		</g>
		<g id="Symbol_00000040575044520980425220000004098653098212162698_">
			<g>
				<path class="st1" d="M445.88,63.16c-2.01-6.51-7.51-10.53-14.02-11.65c-3.49-0.6-7.24-0.12-10.27,1.78
					c-2.75,1.73-5.54,4.95-5.29,8.41c0.03,0.44,1.2,0.97,1.39,0.38c0.42-1.27,0.43-1.97,1.15-3.12c0.71-1.15,1.89-2.41,2.95-3.24
					c2.27-1.78,5.37-2.31,8.24-2.2c5.71,0.21,10.56,2.73,13.08,7.98c2.44,5.08,1.44,11.18-1.96,15.58
					c-1.82,2.36-3.74,3.77-6.08,5.54c-2.52,1.91-4.39,3.2-5.97,5.55c-0.79,1.16-1.47,2.42-2.42,3.47c-1.03,1.13-2.5,1.61-4.02,1.51
					c-1.54-0.1-3.57-0.82-4.8-1.83c-1.02-0.83-2.42-2.13-2.57-5.06c-0.06-1.19-1.43-0.93-1.48,0.43c-0.06,1.46-0.06,2.38,0.92,4
					c0.83,1.36,2.22,2.68,3.62,3.34c2.75,1.28,6.65,1.75,9.13-0.26c2.37-1.91,3.3-5.01,5.67-6.96c2.58-2.12,4.85-3.67,7.33-5.92
					C445.34,76.47,447.85,69.56,445.88,63.16z"/>
				<path class="st1" d="M438.68,63.35c0.31-0.43,0.04-1.25-0.11-1.68c-0.13-0.37-0.33-0.72-0.57-1.04
					c-1.78-2.38-5.19-3.35-8.05-3.09c-3.88,0.35-8.71,3.46-8.37,7.86c0.15,1.95,1.64,3.78,3.6,4.1c1.9,0.31,3.42-0.86,5.15-1.37
					c2.59-0.75,3.61,1.99,3.65,4.09c0.02,1.16,0.02,2.54-0.39,3.64c-0.39,1.03-1.29,1.32-2.27,1.55c-0.92,0.22-1.89,0.37-2.71,0.86
					c-1.07,0.64-1.39,1.64-1.96,2.68c-0.35,0.64-0.94,1.29-1.58,1.66c-0.63,0.36-1.31,0.3-1.96,0.07c-0.65-0.23-1.11-0.77-1.47-1.35
					c-0.19-0.31-0.3-0.79-0.61-1.02c-0.62-0.46-1.05,0.14-1.17,0.7c-0.16,0.72,0.11,1.48,0.53,2.06c0.87,1.19,2.56,1.73,3.99,1.53
					c1.42-0.2,2.77-1.1,3.62-2.24c0.61-0.82,0.8-2.06,1.69-2.63c0.72-0.46,1.67-0.54,2.48-0.74c0.77-0.19,1.54-0.46,2.16-0.97
					c0.98-0.8,1.3-2.04,1.42-3.25c0.21-2.17,0.33-4.55-0.98-6.42c-1.23-1.76-3.27-2.41-5.3-1.75c-1.54,0.5-3.65,2.13-5.1,0.66
					c-1.88-1.9-0.33-4.74,1.37-6.12c1.85-1.5,4.35-2.14,6.69-1.74c1.07,0.18,2.09,0.62,2.99,1.21c0.87,0.57,1.33,1.27,1.87,2.13
					c0.28,0.45,0.69,1.3,1.32,0.69C438.64,63.4,438.66,63.38,438.68,63.35z"/>
			</g>
			<path class="st12" d="M407.39,80.92L407.39,80.92c-0.36-0.88,0.06-1.88,0.93-2.24l40.92-16.85c0.88-0.36,1.88,0.06,2.24,0.93l0,0
				c0.36,0.88-0.06,1.88-0.93,2.24l-40.92,16.85C408.76,82.21,407.75,81.8,407.39,80.92z"/>
		</g>
	</g>
</g>
<g id="Character_1">
	<g id="Character_00000010268666501240493140000005389718778777190326_">
		<g id="Bottom_00000158028278228156882660000012891544791498917785_">
			<g>
				<path class="st14" d="M115.63,384.01c1.28-15.04,0.08-21.36,1.62-44.85l0,0c0.18-6.02,0.48-12.47,0.95-18.2
					c1.59-19.28,4.66-25.84,4.98-29.56c0,0-1.01-33.7,0.76-75.9c0.83-19.85,6.69-25.8,11.43-36.29l58.3,0.65
					c3.08,26.28,2.9,75.02,2.4,101.82c-0.26,13.66-6.53,81.53-6.66,83.22c-0.46,5.96,0.03,8.32,2.35,10.86
					c4.86,5.31,11.93,10.39,18.05,15.04c-0.92,2.34-8.34,2.17-11.99,0.34c-5.83-2.92-11.6-7.34-13.59-8.84
					c-5.02-3.79-12.37-6.88-12.39-12.56c-0.01-0.71-0.2-0.9-0.16-1.02c-0.06-3.32-6.48-47.11-6.99-58.47
					c-0.44-9.76,0.95-26.31,0.95-26.31l-5.21-33.64c0,0-2.31,28.08-6.46,44.72c-3.37,13.54-9.31,31.42-13.13,48.09l0,0
					c-3.7,19.21-8.96,32.86-9.96,42.48c-0.29,2.3-3.18,24.85-4.32,30.01c-1.14,5.16-12.48,5.17-13.1-3.73
					C113.08,405.93,115.39,386.84,115.63,384.01z"/>
			</g>
			<g>
				<path class="st7" d="M220.24,396.9c0.31,0,0.78,3.44-0.92,4.9c-1.97,1.69-7.74,4.45-15.37,3.47c-7.63-0.99-11.75-3.33-14.8-5.88
					c-3.05-2.54-7.32-6.13-10.77-6.89c-3.2-0.7-7.17-3.1-8.19-4.09c-1.02-0.99-0.88-5.37-0.88-5.37L220.24,396.9z"/>
				<path id="XMLID_00000000180347307659442060000017911723373805547945_" class="st8" d="M171.55,367.11c0,0-0.58,0.02-0.77,1.03
					c-0.24,1.21-0.49,4.72-1,6.7c-0.7,2.75-0.75,7.47-0.33,9.72c0.42,2.24,6.12,4.76,9.46,6.02c3.41,1.29,7.35,3.96,10.81,6.8
					c3.58,2.94,11.12,5.9,16.09,5.97c7.59,0.11,12.51-1.93,14.03-4.64c1.88-3.36,0.41-5.3-8.31-9.33c-1.65-0.76-7.45-4.18-9.42-5.42
					c-2.09-1.31-4.09-2.76-5.93-4.4c-0.93-0.83-1.82-1.7-2.66-2.62c-0.74-0.81-1.77-1.8-2.21-2.81c-0.1-0.23-0.17-0.5-0.25-0.73
					c-0.25-0.69-0.43-1.32-0.57-2.03c-0.14-0.72-0.23-1.77-0.92-2.21c-0.79-0.5-2.22-0.44-3.12-0.37c-1.13,0.08-2.26,0.23-3.36,0.47
					c-1.28,0.29-2.77,0.4-3.53,1.6c-0.58,0.92-0.67,2.08-0.72,3.14c-0.02,0.51-0.01,1.02-0.02,1.52c0,0.22,0.09,0.61-0.21,0.52
					c-0.29-0.09-0.61-0.84-0.72-1.1c-0.24-0.57-0.4-1.17-0.66-1.73c-0.3-0.64-0.64-1.29-1.08-1.84c-0.41-0.51-1.77-1.02-2.29-1.42
					c-0.47-0.37-1.07-0.55-1.49-0.96C171.83,368.47,171.6,367.54,171.55,367.11z"/>
				<path class="st9" d="M212.93,390.05c-10.99,0.75-14.45,7.5-14.93,11.67c2.72,0.96,5.53,1.6,7.8,1.63
					c7.59,0.11,12.82-1.93,14.34-4.64C221.92,395.55,220.72,392.99,212.93,390.05z"/>
				<g>
					<g>
						<path class="st10" d="M196.46,390.15c-0.12,0-0.24-0.04-0.34-0.12c-0.23-0.19-0.26-0.52-0.07-0.75
							c1.53-1.86,5.95-4.33,9.94-3.89c0.3,0.03,0.51,0.3,0.48,0.59c-0.03,0.29-0.29,0.5-0.59,0.47c-3.73-0.39-7.78,2.03-8.99,3.51
							C196.77,390.09,196.62,390.15,196.46,390.15z"/>
					</g>
					<g>
						<path class="st10" d="M191.73,387.41c-0.12,0-0.24-0.04-0.34-0.12c-0.23-0.19-0.26-0.52-0.07-0.75
							c1.53-1.86,5.95-4.33,9.94-3.89c0.3,0.03,0.51,0.3,0.48,0.59c-0.03,0.29-0.28,0.5-0.59,0.47c-3.73-0.4-7.78,2.03-8.99,3.51
							C192.04,387.34,191.89,387.41,191.73,387.41z"/>
					</g>
					<g>
						<path class="st10" d="M187.35,384.27c-0.12,0-0.24-0.04-0.34-0.12c-0.23-0.19-0.26-0.52-0.07-0.75
							c1.53-1.86,5.96-4.33,9.94-3.89c0.3,0.03,0.51,0.3,0.48,0.59c-0.03,0.29-0.29,0.5-0.59,0.47c-3.72-0.4-7.78,2.03-8.99,3.51
							C187.66,384.21,187.51,384.27,187.35,384.27z"/>
					</g>
					<g>
						<path class="st10" d="M183.06,381.14c-0.12,0-0.23-0.04-0.33-0.12c-0.23-0.18-0.27-0.52-0.09-0.75
							c2.11-2.64,6.86-4.38,10.85-3.95c0.3,0.03,0.51,0.3,0.48,0.59c-0.03,0.29-0.29,0.5-0.59,0.47c-3.59-0.39-8.03,1.21-9.9,3.55
							C183.38,381.07,183.22,381.14,183.06,381.14z"/>
					</g>
				</g>
			</g>
			<g>
				<path class="st7" d="M130.1,419.66c-0.36,5.15-1.21,8.56-3.08,11.56c-1.87,3-5.35,3.91-8.86,2.99c-3.5-0.92-7.97-3.34-8.93-7.8
					c-0.95-4.46-1.5-7.51-0.65-12.28L130.1,419.66z"/>
				<path id="XMLID_00000049196051102794658580000014854603617695653773_" class="st8" d="M115.77,382.17
					c-1.45,0.1-1.96,7.01-2.87,13.93c-0.98,7.42-3.25,10.47-4.12,16.55c-1,6.95,0.13,10.07,2.53,14.3
					c2.4,4.24,11.03,8.46,15.37,2.48c3.54-4.87,3.75-10.32,3.52-17.27c-0.24-7.19,0.31-12.15,0.67-17.6
					c0.34-5.21,1.57-10.45,0.31-11.04c-0.11,0.76-0.21,1.73-0.32,2.48c-0.14,0.92-0.15,1.89-0.5,2.77c-0.15,0.39-0.48,0.79-0.6,0.16
					c-0.08-0.43-0.04-0.87,0.02-1.3c0.23-1.92-0.74-2.08-1.26-2.24c-1.13-0.34-5.62-0.94-6.7-1.02c-1.1-0.09-4.92-0.3-5.42,0.33
					c-0.34,0.42-0.4,1.13-0.51,2.01c-0.14,1.05-0.39,1.81-0.42,1.48c-0.06-0.75,0.11-2.7,0.13-3.17c0.02-0.45,0.1-1.07,0.12-1.52
					C115.73,383.06,115.74,382.61,115.77,382.17z"/>
				<path class="st9" d="M108.33,416.68c-0.3,4.32,0.7,7.29,2.58,10.6c2.4,4.24,11.73,8.48,16.07,2.5
					c2.16-2.97,2.78-6.51,3.11-10.13C127.59,414.98,112.42,412.77,108.33,416.68z"/>
				<g>
					<g>
						<path class="st10" d="M127.03,412.06c-0.06-0.01-0.12-0.02-0.18-0.05c-0.06-0.03-6.72-2.86-13.26-1.43
							c-0.29,0.06-0.57-0.12-0.64-0.41c-0.06-0.29,0.12-0.57,0.41-0.64c6.91-1.51,13.71,1.39,13.96,1.51
							c0.27,0.13,0.38,0.45,0.24,0.72C127.47,411.97,127.25,412.08,127.03,412.06z"/>
					</g>
					<g>
						<path class="st10" d="M113.98,405.39c-0.2-0.02-0.38-0.16-0.45-0.36c-0.09-0.28,0.06-0.58,0.34-0.67
							c6.51-2.11,13.68,1.25,13.95,1.39c0.26,0.14,0.36,0.46,0.22,0.72c-0.14,0.26-0.47,0.35-0.73,0.22
							c-0.06-0.03-7.04-3.29-13.1-1.32C114.13,405.4,114.05,405.4,113.98,405.39z"/>
					</g>
					<g>
						<path class="st10" d="M114.26,400.51c-0.2-0.02-0.38-0.16-0.45-0.36c-0.1-0.28,0.05-0.58,0.33-0.68
							c7.17-2.46,13.96,1.2,14.21,1.35c0.25,0.16,0.33,0.49,0.17,0.74c-0.16,0.25-0.49,0.33-0.74,0.17
							c-0.06-0.04-6.62-3.54-13.29-1.25C114.42,400.51,114.34,400.51,114.26,400.51z"/>
					</g>
					<g>
						<path class="st11" d="M114.68,395.69c-0.2-0.02-0.37-0.15-0.44-0.35c-0.1-0.28,0.04-0.58,0.32-0.68
							c6.72-2.42,14.03,1.34,14.3,1.51c0.26,0.15,0.34,0.48,0.19,0.73c-0.15,0.25-0.48,0.34-0.73,0.19
							c-0.06-0.04-7.16-3.67-13.39-1.42C114.84,395.69,114.75,395.7,114.68,395.69z"/>
					</g>
				</g>
			</g>
			<g>
				<g>
					<path class="st8" d="M129.26,179.33c-6.65,11.73-6.95,21.36-8.02,56.46c-1.07,35.1-1.01,48.63-1.19,52.86
						c-0.19,4.23-0.95,11.77-3.38,32.6c-2.42,20.83-0.51,40.47-0.51,40.47s1.46,3.37,9.47,4.18c7.39,0.74,11.08-1.98,11.08-1.98
						s10.14-35.7,13.24-48.19c4.69-18.93,10.41-57.02,10.41-57.02l3.81,25.79c0,0-2.39,11.48-0.35,29.79
						c2.04,18.31,4.63,31.78,4.63,31.78s6.3,2.13,12.63,2.11c6.33-0.02,10.34-2.77,10.34-2.77s6.44-48.87,6.68-69.6
						c0.25-20.73-1.39-70.63-3.09-95.53L129.26,179.33z"/>
				</g>
				<path class="st7" d="M117.52,363.23c0.3,0.23,0.66,0.47,1.09,0.72c-1.65-32.79,3.03-46.33,5.91-58.84
					c0.28-1.2,0.54-2.34,0.78-3.43c2.18-9.78,0.43-26.21,0.59-42.33c0.05-4.85,0.1-9.86,0.21-15.19c0.13-6.23,0.39-12.68,0.98-19.06
					c11.5-1.23,14.12-12.49,17.43-26.7c0.45-1.94,0.92-3.95,1.43-6.01l-1.02-0.25c-0.51,2.07-0.98,4.08-1.43,6.03
					c-3.31,14.24-5.75,24.58-16.31,25.86c1.42-14.48,4.59-28.49,11.86-38.56l-0.85-0.61c-10.81,14.98-12.71,38.37-13.14,59.28
					c-0.11,5.33-0.16,10.35-0.21,15.2c-0.16,16.06,1.59,32.44-0.56,42.11c-0.24,1.09-0.5,2.23-0.78,3.43
					C120.63,317.34,115.96,330.77,117.52,363.23z M167.44,222.13l-7.09,36.57l3.81,25.79l0.38-24.79l4.77-24.66
					c0.14,2.46,0.28,4.97,0.43,7.55c1.2,21.2,1.94,37.48,0.76,42.53c-3.22,13.82-2.42,22.57-0.98,38.46c0.15,1.61,0.3,3.3,0.46,5.07
					c0.79,8.98,1.82,12.61,2.42,18.39c0.33,0.09,0.7,0.18,1.08,0.26c-0.6-5.76-1.65-9.58-2.46-18.75c-0.16-1.77-0.31-3.46-0.46-5.07
					c-1.43-15.78-2.22-24.47,0.96-38.13c1.21-5.19,0.53-20.51-0.74-42.82c-0.23-4.05-0.45-7.97-0.65-11.7l1-4.44
					c5.04-1.14,13.13-4.88,14.69-11.76C177.98,222.59,167.44,222.13,167.44,222.13z"/>
			</g>
		</g>
		<g id="Top_00000045611722507058797430000010726212305222047877_">
			<g>
				<path class="st14" d="M179.63,112.14c6.5,1.79,10.29,2.14,18.8,11.34c15.04,16.26,25.37,24.55,29.05,30.32l-21.46,11.36
					l-26-26.49L179.63,112.14z"/>
				<path class="st15" d="M200.45,159.47l13.54-9.12c-5.84-0.55-12.98,4.25-16.31,6.29L200.45,159.47z"/>
				<path class="st1" d="M178.75,111.39c12.69,2.17,13.98,5.4,20.69,12.08c6.71,6.68,14.19,15.32,14.19,15.32s-4.44,1.06-10.07,5.82
					c-5.11,4.33-7.83,11.2-7.83,11.2l-16.77-17.16L178.75,111.39z"/>
			</g>
			<path id="Chest_00000002365805782998505670000012963908690351841725_" class="st12" d="M140.56,108.45c0,0-10.29,3.69-19.39,6.97
				c0,0-8.1,3.73-2.65,33.05c1.37,7.39,4.17,18.15,4.94,27.29c0.43,5.19-0.34,17.53-1.03,28.23c0,0,16.6,10.85,46.28,7.54
				c23.3-2.6,27.65-13.18,27.65-13.18s-1.51-25.92-3.45-43.25c-2.79-24.89-7.77-38.81-14.16-43.69l-13.27-1.42L140.56,108.45z"/>
			<g id="Head_00000084521657517569907030000003637052851864272259_">
				<g id="XMLID_00000125584856182046424900000005124151617932772747_">
					<path class="st7" d="M133.17,85.17c2.29,7.65,4.88,10.94,6.05,13.06s3.47,2.65,3.47,2.65l-0.48-9.19l-0.51-6.4
						c0,0,4.99-4.83,5.3-9.44c0.14-2.03-0.05-3.74-0.36-5.13l30.62,1.21c0,0,2.6-7.83-1.59-13.84c-4.02-5.76-9.83-9.36-20.07-8.53
						c-12.5,1.01-18.82,7.35-19.57,12.54l0.01,0.01c-1.24,0.51-3.18,1.73-4.58,4.65C130.35,69.07,129.61,73.28,133.17,85.17z"/>
					<path class="st14" d="M134.48,93.85c0.28,0.19,0.57,0.37,0.88,0.52c0.76,0.38,1.72,0.73,2.58,0.74
						c0.74,0.01,1.53-0.37,2.19-0.73c0.73-0.4,1.46-0.93,2.01-1.57l-1.71,16.92c6.05,11.35,33.6,14.02,24.37,2.04l0.34-6.14
						c0,0,1.58-0.04,4.07-0.51c4.16-0.78,8.08-4.09,9.2-8.69c1.65-6.81,0.34-21.01-0.98-28.97c-0.37-2.25-2.72-4.85-4.76-5.8
						c-5.08-2.37-9.61,1.36-16.52,4.3c-2.86,1.22-9.86,1.9-11.73,1.07c1.74,2.23,1.93,4.45,1.95,5.74c0.02,1.36-0.27,3.21-0.77,4.49
						c-0.51,1.28-1.15,2.51-1.41,3.87c-0.12,0.62-0.19,1.32-0.65,1.75c-0.59,0.55-1.57,0.4-2.22-0.08c-0.65-0.47-1.08-1.18-1.59-1.8
						c-0.67-0.82-1.53-1.52-2.54-1.83c-1.94-0.6-4.13,0.4-5.31,2.05c-1.18,1.65-1.47,3.8-1.23,5.81
						C130.97,89.69,132.3,92.34,134.48,93.85z"/>
					<path class="st15" d="M165.14,105.62c-5.48,0.11-10.36-0.44-13.63-1.74c-3.27-1.29-6.25-5.64-7.31-10
						c0.09,3.53,1.79,9.75,6.76,12.22c4.97,2.47,10.43,2.35,14.02,2.34L165.14,105.62z"/>
				</g>
				<g id="XMLID_00000074425898143726472110000001710353226021198775_">
					<path id="XMLID_00000183961766806468128600000009639406361551568558_" class="st7" d="M156.93,72.88l-4.07,2.96
						c-0.8-1.19-0.53-2.82,0.59-3.64C154.58,71.38,156.14,71.68,156.93,72.88z"/>
					<path id="XMLID_00000127750529827906966600000007488909383182789540_" class="st7" d="M175.5,73.23l-5.01-0.78
						c0.16-1.42,1.41-2.39,2.79-2.17C174.66,70.49,175.65,71.82,175.5,73.23z"/>
					<path class="st7" d="M155.73,78.63c0.11,1.14,1.12,1.97,2.24,1.85c1.12-0.11,1.94-1.13,1.83-2.27
						c-0.11-1.14-1.12-1.97-2.24-1.85C156.43,76.48,155.61,77.49,155.73,78.63z"/>
					<path class="st7" d="M170.9,77.13c0.11,1.14,1.12,1.97,2.24,1.85c1.13-0.11,1.95-1.13,1.83-2.27
						c-0.11-1.14-1.12-1.97-2.24-1.85C171.61,74.98,170.79,76,170.9,77.13z"/>
					<path id="XMLID_00000064329573631590710690000005886843701438760105_" class="st15" d="M164.2,75.33l1.95,13.06l7.29-3.03
						C170.69,80.88,167.61,77.54,164.2,75.33z"/>
				</g>
			</g>
			<g>
				<g>
					<path class="st14" d="M121.27,116.16c-13.49,6.35-12.65,17.82-8.23,30.35c3.68,10.43,5.43,13.52,10.92,25.19
						c3.87,8.22,10.94,15.1,17.11,14.27c6.17-0.83,10.69-7.91,8.1-17.1c-2.58-9.2-13.07-31.22-13.07-31.22S129.61,119,121.27,116.16
						z"/>
				</g>
				<path class="st15" d="M147.4,163.6c-1.47-3.93-3.43-8.57-5.31-12.85c-8.53,11.32-8.11,16.96-6.8,23.38l6.48-3.25L147.4,163.6z"
					/>
				<path class="st1" d="M112.08,146.94c-4.42-12.52-4.4-25.16,9.09-31.52c8.33,2.84,15.49,22.41,15.49,22.41l4.67,10.14
					c0,0,0.26,3.52-9.29,8.94c-9.54,5.42-13.58,4.64-13.58,4.64L112.08,146.94z"/>
			</g>
			<g>
				<path class="st14" d="M174.86,109.57c-0.12-0.22-0.26-0.42-0.34-0.66c-0.14-0.38-0.15-0.79-0.18-1.2
					c-0.09-0.99-0.44-1.99-1.17-2.67c-0.32-0.29-0.69-0.51-1.05-0.74c-0.12-0.08-0.25-0.16-0.34-0.28c-0.28-0.35-0.18-0.86-0.25-1.3
					c-0.16-0.97-1.24-1.59-2.22-1.48c-1.17,0.14-1.91,1-2.5,1.92c-0.05,0.07-0.1,0.15-0.18,0.19c-0.08,0.04-0.18,0.03-0.27,0.03
					c-0.44-0.03-0.89,0.04-1.3,0.19c-0.4,0.15-0.76,0.39-1.03,0.71c-0.63,0.73-0.8,1.75-0.94,2.71c-0.23,1.59-0.36,3.18-0.6,4.77
					c-0.47,3.12-0.52,6.35-1.99,9.19c-0.14,0.26-0.36,0.56-0.65,0.51c-0.27-0.05-0.39-0.36-0.45-0.62
					c-0.62-2.77,0.82-5.82-1.53-8.12c-2.04-2-2.05,2.2-2.28,3.31c-0.31,1.49-0.62,2.98-0.92,4.46c-0.51,2.46-1.02,4.97-0.83,7.48
					c0.19,2.37,1,4.66,1.08,7.04c0.07,2.43-0.13,5.61-1.52,7.58c-5.82,8.32-9.9,11.41-9.9,11.41s-6.4,7.22-7.63,14.37
					c-1.72,10,0.41,17.5,4.4,17.58c1.86,0.04,5.06-0.74,8.27-3.66c1.59-1.44,2.82-2.81,4.45-4.89c7.78-9.43,11.83-20.1,17.87-35.38
					c3.38-8.55,5.42-18.5,5.71-22.4c0.13-1.72,0.15-3.61-0.12-5.32C176.2,112.75,175.65,110.96,174.86,109.57z"/>
				<g>
					<path class="st15" d="M153,177.42c6.74-8.34,10.82-18.34,14.72-28.23c2.99-7.43,5.83-14.87,7.38-22.74
						c0.79-3.88,1.53-7.83,1.03-11.77c-0.28-2-0.9-3.78-1.9-5.56c-0.3-0.66-0.18-1.36-0.35-2.02c-0.2-0.93-0.66-1.71-1.48-2.21
						c-0.3-0.17-0.62-0.42-0.89-0.65c-0.32-0.39-0.29-0.85-0.31-1.15c0.03-0.91-0.79-1.5-1.64-1.53c-1.26-0.04-2.01,1.09-2.7,2.01
						c-0.15,0.12-0.35,0.14-0.45,0.13c-1.27-0.13-2.38,0.6-2.73,1.84c-0.55,2.14-0.8,5.6-1.17,7.85c-0.34,2.66-0.61,5.4-1.93,7.81
						c-0.18,0.38-0.79,0.7-1.13,0.28c-0.57-0.97-0.39-2.04-0.42-3.08c0.11-1.95,0.27-4.1-1.23-5.55c-0.41-0.45-1.11-0.84-1.46-0.12
						c-0.59,1.17-0.49,2.58-0.83,3.87l-0.86,3.91l0.77-3.93c0.32-1.29,0.17-2.67,0.76-3.94c0.42-0.86,1.27-0.5,1.79,0.04
						c2.16,2,1.17,5.14,1.53,7.69c0.06,0.48,0.25,1.35,0.73,0.61c1.75-3.42,1.66-7.88,2.26-11.63c0.31-2.57,0.3-6.56,3.95-6.29
						c0.07,0,0.04-0.01,0.02,0.01c0,0.01,0.03-0.04,0.08-0.12c0.66-1.06,1.67-2.08,3.03-2.05c1.15-0.02,2.35,0.96,2.3,2.16
						c0,0.57,0.07,0.74,0.47,0.99c1.11,0.58,1.99,1.66,2.21,2.9c0.18,0.7,0.08,1.43,0.32,1.91c1.72,2.89,2.33,6.44,2.12,9.78
						c-1,10.74-4.6,20.97-8.76,30.76C164.26,159.26,159.95,169.25,153,177.42L153,177.42z"/>
				</g>
				<path class="st15" d="M166.98,103.63c0.33,0.59,0.31,1.28,0.33,1.94c-0.02,1.99-0.08,4.01-0.22,5.99
					c-0.19,2.34-0.41,5.69-0.62,7.99c0.88-3.92,1.29-7.98,1.22-11.98C167.59,106.26,167.75,104.76,166.98,103.63z M170.62,120.43
					c1.38-5.26,1.42-10.82,0.98-16.22C171.27,109.55,171.39,115.13,170.62,120.43z M174.04,121.23c0.91-3.96,1.11-8.13,0.49-12.14
					C174.46,112.63,174.2,117.64,174.04,121.23z"/>
			</g>
			<g>
				<path id="XMLID_00000152261488685633525710000011631776965648217996_" class="st15" d="M160.11,89.84l7.76,2.06
					c-0.53,2.22-2.69,3.56-4.84,2.99C160.9,94.32,159.59,92.06,160.11,89.84z"/>
				<path class="st13" d="M161,91.16c-0.33-0.05-0.65-0.05-0.97-0.03c0.12,1.74,1.29,3.3,3.02,3.76c0.43,0.11,0.86,0.13,1.28,0.1
					C164.53,93.18,163.08,91.49,161,91.16z"/>
			</g>
			<path class="st14" d="M196.85,180.52c1.8-1.29,3.63-2.27,6.72-3.75c2.1-1.01,5.9-2.24,8.72-3.48
				c6.81-2.99,11.34-4.71,14.75-10.09c3.62-5.7,2.04-8.35-1.67-12.21c-0.5-0.52-4.67-1.71-8.89-1.09
				c-4.95,0.73-7.19,1.82-11.32,4.59c-4.34,2.91-13.15,10.66-16.58,12.11c-2.62,1.11-4.71,0.77-7.4,0.59
				c-3.81-0.27-8.61,0.8-12.34,1.65c-0.54,0.12-1.15,0.29-1.41,0.78c-0.21,0.4-0.13,0.91,0.13,1.28c0.75,1.1,2.17,1.36,3.41,1.47
				c0.94,0.08,3.95-0.16,4.69,0.47c1.22,1.06-2.33,2.85-3.01,3.24c-1.14,0.65-2.35,1.18-3.58,1.65c-2.03,0.77-4.2,1.09-6.17,1.89
				c-0.67,0.27-1.36,0.54-1.94,0.98c-0.58,0.44-1.05,1.09-1.08,1.82c-0.04,0.73,0.47,1.5,1.19,1.6c-1.83,0.47-2.34,1.34-2.57,2.23
				c-0.12,0.47,0.07,1.12,0.42,1.47c0.38,0.38,1.46,0.48,1.96,0.51c-0.41,0.75-0.39,1.63-0.05,2.2c0.27,0.47,0.91,0.77,1.4,0.93
				c0.51,0.17,1.62,0.18,2.16,0.2c0.26,1.11,1.33,1.5,2.07,1.61c1,0.15,1.89,0.09,2.78,0.01c3.46-0.29,5.93-1.18,9.18-2.3
				c4.02-1.38,8.8-3.77,12.4-6.08C193.24,183.23,195.31,181.63,196.85,180.52z"/>
			<g>
				<path class="st15" d="M178.75,186.98c-4.83,2.05-9.22,3.82-14.38,4.58C169.6,191.53,174.21,189.69,178.75,186.98z"/>
				<path class="st15" d="M161.18,184.21c0.78,0.2,1.54,0.04,2.32-0.02c4.52-0.65,8.95-2.27,12.92-4.68
					c-4.19,1.86-8.51,3.44-12.97,4.27c-1.31,0.29-3.47,0.59-3.56-1.49C159.75,183.15,160.39,184.02,161.18,184.21z"/>
				<path class="st15" d="M169.48,187c2.82-1.01,5.64-2.16,8.13-3.93c-5.36,2.5-11.04,5.03-16.98,5.18
					C163.64,188.76,166.64,187.88,169.48,187z"/>
			</g>
		</g>
	</g>
</g>
<g id="Speech_Bubble_1">
	<g id="Speech_Bubble_00000054257648417875617380000017929552602190771850_">
		<g id="Speech_Bubble_00000004516973551421991380000013048147702910735259_">
			<path class="st3" d="M88.33,45.88c7.2,4.65,11.94,11.69,13.89,19.42l0.69,3.65c0.98,7.38-0.55,15.13-4.89,21.86
				c-9.72,15.06-29.88,19.41-44.93,9.69c-6.73-4.34-11.31-10.78-13.46-17.9l-0.87-3.62c-1.42-7.84,0-16.21,4.65-23.41
				C53.12,40.51,73.27,36.16,88.33,45.88z"/>
			<path class="st12" d="M41.08,54.08c-10.54,16.34-5.83,38.21,10.51,48.74c14.66,9.46,33.76,6.63,45.14-5.85l10.73,2.21
				c1.83,0.38,3.17-1.7,2.07-3.21l-6.44-8.87c6.68-15.52,1.39-34.08-13.26-43.53C73.49,33.03,51.63,37.74,41.08,54.08z M88.33,45.88
				c7.2,4.65,11.94,11.69,13.89,19.42l0.69,3.65c0.98,7.38-0.55,15.13-4.89,21.86c-9.72,15.06-29.88,19.41-44.93,9.69
				c-6.73-4.34-11.31-10.78-13.46-17.9l-0.87-3.62c-1.42-7.84,0-16.21,4.65-23.41C53.12,40.51,73.27,36.16,88.33,45.88z"/>
		</g>
		<g id="Symbol_00000015345083177502458640000009029946880798905753_">
			<g>
				<g>
					<path class="st1" d="M57.35,84.23l-7.56,1.73c-0.52,0.12-1.04-0.21-1.16-0.73l-2.79-12.19c-0.12-0.52,0.21-1.04,0.73-1.16
						l7.56-1.73c0.52-0.12,1.04,0.21,1.16,0.73l2.79,12.19C58.2,83.59,57.87,84.11,57.35,84.23z"/>
					<path class="st1" d="M72.86,90.96l-16.6-6.48L53.04,70.4l12.14-13.05c1.47-1.58,4.1-0.87,4.58,1.23l6.7,29.29
						C76.93,89.96,74.86,91.74,72.86,90.96z"/>
				</g>
				<g id="XMLID_00000119820334702789297580000016413742846261457837_">
					<g id="XMLID_00000163769944922559851670000007194951461968064643_">
						<path class="st1" d="M84.44,70.63c-0.92-4.01-3.96-6.98-7.67-7.99c-0.75-0.2-1.54,0.17-1.88,0.87l0,0.01
							c-0.42,0.89,0.06,1.95,1,2.21c2.63,0.7,4.77,2.8,5.42,5.61c0.65,2.83-0.38,5.65-2.44,7.41c-0.75,0.64-0.71,1.81,0.05,2.43
							l0.01,0.01c0.6,0.49,1.48,0.48,2.06-0.03C83.9,78.64,85.35,74.64,84.44,70.63z"/>
					</g>
				</g>
				<g id="XMLID_00000040572236334787760250000002444911797689757076_">
					<g id="XMLID_00000103231830809029255030000009476827023010604476_">
						<path class="st1" d="M90.81,69.17c-1.36-5.96-5.68-10.49-11.06-12.43c-0.79-0.28-1.67,0.05-2.03,0.81l-0.01,0.01
							c-0.41,0.86,0.03,1.87,0.93,2.19c4.4,1.55,7.93,5.26,9.04,10.13c1.11,4.87-0.46,9.75-3.74,13.07
							c-0.67,0.68-0.63,1.77,0.12,2.37l0,0c0.65,0.53,1.59,0.45,2.18-0.15C90.25,81.12,92.18,75.14,90.81,69.17z"/>
					</g>
				</g>
			</g>
			<path class="st12" d="M56.35,94.19L56.35,94.19c-0.72-0.46-0.94-1.41-0.49-2.14l25.9-41.29c0.46-0.72,1.41-0.94,2.14-0.49l0,0
				c0.72,0.45,0.94,1.41,0.49,2.14L58.49,93.7C58.03,94.43,57.08,94.65,56.35,94.19z"/>
		</g>
	</g>
</g>
</svg>
